<svg xmlns="http://www.w3.org/2000/svg" xmlns:xlink="http://www.w3.org/1999/xlink" width="400" zoomAndPan="magnify" viewBox="0 0 300 299.999988" height="400" preserveAspectRatio="xMidYMid meet" version="1.0"><defs><clipPath id="id1"><path d="M 140 243 L 183 243 L 183 262.914062 L 140 262.914062 Z M 140 243 " clip-rule="nonzero"/></clipPath><clipPath id="id2"><path d="M 140 37.164062 L 183 37.164062 L 183 75 L 140 75 Z M 140 37.164062 " clip-rule="nonzero"/></clipPath><clipPath id="id3"><path d="M 50.375 153 L 77 153 L 77 181 L 50.375 181 Z M 50.375 153 " clip-rule="nonzero"/></clipPath><clipPath id="id4"><path d="M 215 236 L 242 236 L 242 262.914062 L 215 262.914062 Z M 215 236 " clip-rule="nonzero"/></clipPath><clipPath id="id5"><path d="M 207 187 L 249.875 187 L 249.875 224 L 207 224 Z M 207 187 " clip-rule="nonzero"/></clipPath></defs><path fill="#4a4b88" d="M 161.371094 99.398438 C 161.050781 99.398438 160.746094 99.339844 160.453125 99.21875 C 160.160156 99.097656 159.902344 98.921875 159.679688 98.699219 C 159.453125 98.476562 159.28125 98.21875 159.160156 97.925781 C 159.039062 97.632812 158.976562 97.328125 158.976562 97.011719 L 158.976562 71.03125 C 158.976562 70.714844 159.039062 70.410156 159.160156 70.117188 C 159.28125 69.824219 159.453125 69.566406 159.679688 69.34375 C 159.902344 69.117188 160.160156 68.945312 160.453125 68.824219 C 160.746094 68.703125 161.050781 68.640625 161.371094 68.640625 C 161.6875 68.640625 161.992188 68.703125 162.285156 68.824219 C 162.578125 68.945312 162.835938 69.117188 163.0625 69.34375 C 163.285156 69.566406 163.457031 69.824219 163.578125 70.117188 C 163.699219 70.410156 163.761719 70.714844 163.761719 71.03125 L 163.761719 97.011719 C 163.761719 97.328125 163.699219 97.632812 163.578125 97.925781 C 163.457031 98.21875 163.285156 98.476562 163.0625 98.699219 C 162.835938 98.921875 162.578125 99.097656 162.285156 99.21875 C 161.992188 99.339844 161.6875 99.398438 161.371094 99.398438 Z M 161.371094 99.398438 " fill-opacity="1" fill-rule="nonzero"/><path fill="#4a4b88" d="M 161.371094 145.859375 C 161.050781 145.859375 160.746094 145.796875 160.453125 145.675781 C 160.160156 145.554688 159.902344 145.382812 159.679688 145.160156 C 159.453125 144.933594 159.28125 144.675781 159.160156 144.382812 C 159.039062 144.089844 158.976562 143.785156 158.976562 143.46875 L 158.976562 117.179688 C 158.976562 116.863281 159.039062 116.558594 159.160156 116.265625 C 159.28125 115.972656 159.453125 115.714844 159.679688 115.492188 C 159.902344 115.265625 160.160156 115.09375 160.453125 114.972656 C 160.746094 114.851562 161.050781 114.789062 161.371094 114.789062 C 161.6875 114.789062 161.992188 114.851562 162.285156 114.972656 C 162.578125 115.09375 162.835938 115.265625 163.0625 115.492188 C 163.285156 115.714844 163.457031 115.972656 163.578125 116.265625 C 163.699219 116.558594 163.761719 116.863281 163.761719 117.179688 L 163.761719 143.46875 C 163.761719 143.785156 163.699219 144.089844 163.578125 144.382812 C 163.457031 144.675781 163.285156 144.933594 163.0625 145.160156 C 162.835938 145.382812 162.578125 145.554688 162.285156 145.675781 C 161.992188 145.796875 161.6875 145.859375 161.371094 145.859375 Z M 161.371094 145.859375 " fill-opacity="1" fill-rule="nonzero"/><path fill="#4a4b88" d="M 228.753906 139.597656 C 228.4375 139.597656 228.132812 139.535156 227.839844 139.414062 C 227.546875 139.292969 227.289062 139.121094 227.0625 138.898438 C 226.839844 138.671875 226.667969 138.414062 226.542969 138.121094 C 226.421875 137.828125 226.363281 137.523438 226.363281 137.207031 L 226.363281 116.894531 C 226.363281 116.4375 226.316406 115.988281 226.230469 115.542969 C 226.140625 115.09375 226.007812 114.660156 225.835938 114.242188 C 225.660156 113.820312 225.445312 113.421875 225.195312 113.042969 C 224.941406 112.664062 224.652344 112.316406 224.332031 111.992188 C 224.007812 111.671875 223.660156 111.382812 223.28125 111.132812 C 222.902344 110.878906 222.5 110.664062 222.082031 110.492188 C 221.660156 110.316406 221.226562 110.183594 220.777344 110.097656 C 220.332031 110.007812 219.882812 109.964844 219.425781 109.964844 L 179.285156 109.964844 C 178.96875 109.964844 178.664062 109.902344 178.371094 109.78125 C 178.078125 109.660156 177.820312 109.488281 177.59375 109.261719 C 177.371094 109.039062 177.199219 108.78125 177.078125 108.488281 C 176.953125 108.195312 176.894531 107.890625 176.894531 107.574219 C 176.894531 107.257812 176.953125 106.953125 177.078125 106.660156 C 177.199219 106.367188 177.371094 106.105469 177.59375 105.882812 C 177.820312 105.660156 178.078125 105.488281 178.371094 105.363281 C 178.664062 105.242188 178.96875 105.183594 179.285156 105.183594 L 219.496094 105.183594 C 220.265625 105.183594 221.027344 105.257812 221.785156 105.40625 C 222.539062 105.558594 223.273438 105.78125 223.984375 106.074219 C 224.695312 106.367188 225.371094 106.730469 226.007812 107.15625 C 226.648438 107.582031 227.242188 108.070312 227.785156 108.613281 C 228.328125 109.15625 228.816406 109.75 229.242188 110.386719 C 229.671875 111.027344 230.03125 111.703125 230.328125 112.414062 C 230.621094 113.121094 230.84375 113.855469 230.992188 114.609375 C 231.144531 115.363281 231.21875 116.125 231.21875 116.894531 L 231.21875 137.207031 C 231.21875 137.53125 231.15625 137.839844 231.03125 138.140625 C 230.902344 138.4375 230.726562 138.699219 230.492188 138.921875 C 230.261719 139.148438 229.992188 139.320312 229.691406 139.4375 C 229.390625 139.554688 229.078125 139.605469 228.753906 139.597656 Z M 228.753906 139.597656 " fill-opacity="1" fill-rule="nonzero"/><path fill="#6d78bf" d="M 219.496094 105.183594 L 205.742188 105.183594 C 205.425781 105.183594 205.121094 105.242188 204.828125 105.363281 C 204.535156 105.488281 204.277344 105.660156 204.050781 105.882812 C 203.828125 106.105469 203.652344 106.367188 203.53125 106.660156 C 203.410156 106.953125 203.351562 107.257812 203.351562 107.574219 C 203.351562 107.890625 203.410156 108.195312 203.53125 108.488281 C 203.652344 108.78125 203.828125 109.039062 204.050781 109.261719 C 204.277344 109.488281 204.535156 109.660156 204.828125 109.78125 C 205.121094 109.902344 205.425781 109.960938 205.742188 109.964844 L 219.496094 109.964844 C 219.953125 109.960938 220.402344 110.007812 220.851562 110.097656 C 221.296875 110.183594 221.730469 110.316406 222.152344 110.492188 C 222.574219 110.664062 222.972656 110.878906 223.351562 111.132812 C 223.730469 111.382812 224.082031 111.671875 224.402344 111.992188 C 224.726562 112.316406 225.011719 112.664062 225.265625 113.042969 C 225.519531 113.421875 225.730469 113.820312 225.90625 114.242188 C 226.082031 114.660156 226.210938 115.09375 226.300781 115.542969 C 226.390625 115.988281 226.433594 116.4375 226.433594 116.894531 L 226.433594 124.492188 C 226.433594 124.808594 226.496094 125.113281 226.617188 125.40625 C 226.738281 125.699219 226.910156 125.960938 227.136719 126.183594 C 227.359375 126.40625 227.617188 126.578125 227.910156 126.703125 C 228.203125 126.824219 228.507812 126.882812 228.828125 126.882812 C 229.144531 126.882812 229.449219 126.824219 229.742188 126.703125 C 230.035156 126.578125 230.292969 126.40625 230.519531 126.183594 C 230.742188 125.960938 230.914062 125.699219 231.035156 125.40625 C 231.15625 125.113281 231.21875 124.808594 231.21875 124.492188 L 231.21875 116.894531 C 231.21875 116.125 231.144531 115.363281 230.992188 114.609375 C 230.84375 113.855469 230.621094 113.121094 230.328125 112.414062 C 230.03125 111.703125 229.671875 111.027344 229.242188 110.386719 C 228.816406 109.75 228.328125 109.15625 227.785156 108.613281 C 227.242188 108.070312 226.648438 107.582031 226.007812 107.15625 C 225.371094 106.730469 224.695312 106.367188 223.984375 106.074219 C 223.273438 105.78125 222.539062 105.558594 221.785156 105.40625 C 221.027344 105.257812 220.265625 105.183594 219.496094 105.183594 Z M 219.496094 105.183594 " fill-opacity="1" fill-rule="nonzero"/><path fill="#a4afe7" d="M 230.5 113.238281 C 230.3125 112.660156 230.082031 112.097656 229.808594 111.554688 C 229.535156 111.011719 229.21875 110.496094 228.863281 110 C 228.507812 109.507812 228.113281 109.046875 227.683594 108.613281 C 227.257812 108.183594 226.796875 107.789062 226.304688 107.429688 C 225.816406 107.070312 225.296875 106.75 224.757812 106.472656 C 224.214844 106.195312 223.65625 105.957031 223.078125 105.769531 C 222.5 105.578125 221.910156 105.433594 221.3125 105.335938 C 220.710938 105.238281 220.105469 105.1875 219.496094 105.183594 L 216.816406 105.183594 C 216.5 105.183594 216.195312 105.242188 215.902344 105.363281 C 215.609375 105.488281 215.351562 105.660156 215.125 105.882812 C 214.902344 106.105469 214.730469 106.367188 214.609375 106.660156 C 214.488281 106.953125 214.425781 107.257812 214.425781 107.574219 C 214.425781 107.890625 214.488281 108.195312 214.609375 108.488281 C 214.730469 108.78125 214.902344 109.039062 215.125 109.261719 C 215.351562 109.488281 215.609375 109.660156 215.902344 109.78125 C 216.195312 109.902344 216.5 109.960938 216.816406 109.964844 L 219.496094 109.964844 C 220.226562 109.960938 220.9375 110.074219 221.632812 110.300781 C 222.328125 110.523438 222.96875 110.851562 223.558594 111.28125 C 224.144531 111.710938 224.652344 112.222656 225.082031 112.8125 C 225.507812 113.40625 225.832031 114.046875 226.050781 114.742188 C 226.15625 115.039062 226.316406 115.304688 226.527344 115.539062 C 226.738281 115.773438 226.984375 115.960938 227.269531 116.097656 C 227.554688 116.234375 227.855469 116.3125 228.167969 116.328125 C 228.484375 116.347656 228.792969 116.304688 229.089844 116.199219 C 229.375 116.089844 229.628906 115.929688 229.851562 115.722656 C 230.078125 115.515625 230.253906 115.273438 230.386719 115 C 230.515625 114.722656 230.59375 114.433594 230.613281 114.128906 C 230.632812 113.824219 230.59375 113.527344 230.5 113.238281 Z M 230.5 113.238281 " fill-opacity="1" fill-rule="nonzero"/><path fill="#4a4b88" d="M 140.296875 109.964844 L 98.195312 109.964844 C 97.878906 109.960938 97.574219 109.902344 97.28125 109.78125 C 96.984375 109.660156 96.726562 109.488281 96.503906 109.261719 C 96.277344 109.039062 96.105469 108.78125 95.984375 108.488281 C 95.863281 108.195312 95.800781 107.890625 95.800781 107.574219 C 95.800781 107.257812 95.863281 106.953125 95.984375 106.660156 C 96.105469 106.367188 96.277344 106.105469 96.503906 105.882812 C 96.726562 105.660156 96.984375 105.488281 97.28125 105.363281 C 97.574219 105.242188 97.878906 105.183594 98.195312 105.183594 L 140.296875 105.183594 C 140.613281 105.183594 140.917969 105.242188 141.210938 105.363281 C 141.503906 105.488281 141.761719 105.660156 141.988281 105.882812 C 142.210938 106.105469 142.382812 106.367188 142.503906 106.660156 C 142.625 106.953125 142.6875 107.257812 142.6875 107.574219 C 142.6875 107.890625 142.625 108.195312 142.503906 108.488281 C 142.382812 108.78125 142.210938 109.039062 141.988281 109.261719 C 141.761719 109.488281 141.503906 109.660156 141.210938 109.78125 C 140.917969 109.902344 140.613281 109.960938 140.296875 109.964844 Z M 140.296875 109.964844 " fill-opacity="1" fill-rule="nonzero"/><path fill="#4a4b88" d="M 148.929688 189.617188 L 100.300781 189.617188 C 99.53125 189.617188 98.769531 189.539062 98.015625 189.386719 C 97.261719 189.238281 96.527344 189.015625 95.816406 188.71875 C 95.109375 188.425781 94.433594 188.0625 93.792969 187.636719 C 93.152344 187.207031 92.5625 186.722656 92.019531 186.179688 C 91.476562 185.636719 90.988281 185.046875 90.5625 184.40625 C 90.132812 183.769531 89.773438 183.09375 89.476562 182.382812 C 89.183594 181.675781 88.957031 180.941406 88.808594 180.191406 C 88.65625 179.4375 88.582031 178.675781 88.578125 177.90625 L 88.578125 120.71875 C 88.578125 120.398438 88.640625 120.09375 88.761719 119.800781 C 88.882812 119.511719 89.054688 119.25 89.277344 119.027344 C 89.503906 118.804688 89.761719 118.628906 90.054688 118.507812 C 90.347656 118.386719 90.652344 118.328125 90.96875 118.328125 C 91.289062 118.328125 91.59375 118.386719 91.886719 118.507812 C 92.179688 118.628906 92.4375 118.804688 92.660156 119.027344 C 92.886719 119.25 93.058594 119.511719 93.179688 119.800781 C 93.300781 120.09375 93.363281 120.398438 93.363281 120.71875 L 93.363281 177.90625 C 93.363281 178.363281 93.410156 178.8125 93.5 179.257812 C 93.589844 179.703125 93.722656 180.136719 93.898438 180.554688 C 94.070312 180.976562 94.285156 181.375 94.539062 181.75 C 94.792969 182.128906 95.078125 182.480469 95.402344 182.800781 C 95.722656 183.121094 96.074219 183.410156 96.453125 183.660156 C 96.828125 183.914062 97.230469 184.128906 97.648438 184.304688 C 98.070312 184.476562 98.503906 184.609375 98.949219 184.699219 C 99.394531 184.789062 99.84375 184.835938 100.300781 184.835938 L 148.929688 184.835938 C 149.246094 184.839844 149.550781 184.898438 149.84375 185.019531 C 150.136719 185.140625 150.394531 185.316406 150.621094 185.539062 C 150.84375 185.761719 151.015625 186.019531 151.136719 186.3125 C 151.257812 186.605469 151.316406 186.910156 151.316406 187.226562 C 151.316406 187.542969 151.257812 187.847656 151.136719 188.140625 C 151.015625 188.433594 150.84375 188.691406 150.621094 188.914062 C 150.394531 189.140625 150.136719 189.3125 149.84375 189.433594 C 149.550781 189.554688 149.246094 189.617188 148.929688 189.617188 Z M 148.929688 189.617188 " fill-opacity="1" fill-rule="nonzero"/><path fill="#6d78bf" d="M 113.648438 187.226562 C 113.648438 187.542969 113.707031 187.847656 113.828125 188.140625 C 113.949219 188.433594 114.125 188.691406 114.347656 188.917969 C 114.574219 189.140625 114.832031 189.3125 115.125 189.433594 C 115.417969 189.554688 115.722656 189.617188 116.039062 189.617188 L 126.398438 189.617188 C 126.714844 189.617188 127.019531 189.554688 127.3125 189.433594 C 127.605469 189.3125 127.863281 189.140625 128.089844 188.917969 C 128.3125 188.691406 128.484375 188.433594 128.605469 188.140625 C 128.730469 187.847656 128.789062 187.542969 128.789062 187.226562 C 128.789062 186.910156 128.730469 186.605469 128.605469 186.3125 C 128.484375 186.019531 128.3125 185.761719 128.089844 185.539062 C 127.863281 185.3125 127.605469 185.140625 127.3125 185.019531 C 127.019531 184.898438 126.714844 184.835938 126.398438 184.835938 L 116.039062 184.835938 C 115.722656 184.835938 115.417969 184.898438 115.125 185.019531 C 114.832031 185.140625 114.574219 185.3125 114.347656 185.539062 C 114.125 185.761719 113.949219 186.019531 113.828125 186.3125 C 113.707031 186.605469 113.648438 186.910156 113.648438 187.226562 Z M 113.648438 187.226562 " fill-opacity="1" fill-rule="nonzero"/><path fill="#6d78bf" d="M 88.578125 136.300781 L 88.578125 160.007812 C 88.578125 160.324219 88.640625 160.628906 88.761719 160.921875 C 88.882812 161.214844 89.054688 161.472656 89.277344 161.695312 C 89.503906 161.921875 89.761719 162.09375 90.054688 162.214844 C 90.347656 162.335938 90.652344 162.394531 90.96875 162.398438 C 91.289062 162.394531 91.59375 162.335938 91.886719 162.214844 C 92.179688 162.09375 92.4375 161.921875 92.660156 161.695312 C 92.886719 161.472656 93.058594 161.214844 93.179688 160.921875 C 93.300781 160.628906 93.363281 160.324219 93.363281 160.007812 L 93.363281 136.300781 C 93.363281 135.980469 93.300781 135.675781 93.179688 135.382812 C 93.058594 135.09375 92.886719 134.832031 92.660156 134.609375 C 92.4375 134.386719 92.179688 134.210938 91.886719 134.089844 C 91.59375 133.96875 91.289062 133.910156 90.96875 133.910156 C 90.652344 133.910156 90.347656 133.96875 90.054688 134.089844 C 89.761719 134.210938 89.503906 134.386719 89.277344 134.609375 C 89.054688 134.832031 88.882812 135.09375 88.761719 135.382812 C 88.640625 135.675781 88.578125 135.980469 88.578125 136.300781 Z M 88.578125 136.300781 " fill-opacity="1" fill-rule="nonzero"/><path fill="#4a4b88" d="M 63.582031 156.351562 C 63.265625 156.351562 62.957031 156.289062 62.664062 156.167969 C 62.371094 156.046875 62.113281 155.875 61.890625 155.648438 C 61.664062 155.425781 61.492188 155.167969 61.371094 154.875 C 61.25 154.582031 61.1875 154.277344 61.1875 153.960938 L 61.1875 116.894531 C 61.1875 116.125 61.265625 115.363281 61.414062 114.613281 C 61.5625 113.859375 61.785156 113.128906 62.078125 112.417969 C 62.371094 111.707031 62.734375 111.035156 63.160156 110.394531 C 63.585938 109.757812 64.070312 109.164062 64.613281 108.621094 C 65.15625 108.078125 65.746094 107.59375 66.386719 107.164062 C 67.023438 106.738281 67.699219 106.375 68.410156 106.082031 C 69.117188 105.785156 69.847656 105.5625 70.601562 105.414062 C 71.355469 105.261719 72.117188 105.183594 72.886719 105.183594 L 77.8125 105.183594 C 78.132812 105.183594 78.4375 105.242188 78.730469 105.363281 C 79.023438 105.488281 79.28125 105.660156 79.503906 105.882812 C 79.730469 106.105469 79.902344 106.367188 80.023438 106.660156 C 80.144531 106.953125 80.207031 107.257812 80.207031 107.574219 C 80.207031 107.890625 80.144531 108.195312 80.023438 108.488281 C 79.902344 108.78125 79.730469 109.039062 79.503906 109.261719 C 79.28125 109.488281 79.023438 109.660156 78.730469 109.78125 C 78.4375 109.902344 78.132812 109.964844 77.8125 109.964844 L 72.886719 109.964844 C 72.433594 109.964844 71.980469 110.011719 71.535156 110.101562 C 71.089844 110.191406 70.660156 110.324219 70.238281 110.496094 C 69.820312 110.671875 69.421875 110.886719 69.042969 111.140625 C 68.667969 111.390625 68.316406 111.679688 67.996094 112 C 67.675781 112.324219 67.390625 112.671875 67.136719 113.050781 C 66.886719 113.429688 66.671875 113.828125 66.5 114.246094 C 66.324219 114.667969 66.195312 115.097656 66.105469 115.542969 C 66.015625 115.988281 65.972656 116.4375 65.972656 116.894531 L 65.972656 153.960938 C 65.972656 154.277344 65.914062 154.582031 65.792969 154.875 C 65.667969 155.167969 65.496094 155.425781 65.273438 155.648438 C 65.046875 155.875 64.789062 156.046875 64.496094 156.167969 C 64.203125 156.289062 63.898438 156.351562 63.582031 156.351562 Z M 63.582031 156.351562 " fill-opacity="1" fill-rule="nonzero"/><path fill="#6d78bf" d="M 63.460938 144.257812 C 63.789062 144.273438 64.105469 144.226562 64.414062 144.109375 C 64.722656 143.996094 64.992188 143.828125 65.230469 143.601562 C 65.46875 143.375 65.652344 143.113281 65.78125 142.8125 C 65.910156 142.507812 65.972656 142.195312 65.972656 141.867188 L 65.972656 116.894531 C 65.972656 115.316406 66.460938 113.90625 67.433594 112.664062 C 67.691406 112.320312 67.847656 111.933594 67.898438 111.507812 C 67.949219 111.078125 67.890625 110.667969 67.71875 110.273438 C 67.636719 110.089844 67.535156 109.917969 67.410156 109.761719 C 67.285156 109.601562 67.144531 109.460938 66.980469 109.339844 C 66.820312 109.21875 66.648438 109.117188 66.464844 109.039062 C 66.277344 108.960938 66.085938 108.90625 65.886719 108.878906 C 65.6875 108.847656 65.488281 108.84375 65.285156 108.863281 C 65.085938 108.882812 64.890625 108.929688 64.703125 109 C 64.515625 109.070312 64.335938 109.160156 64.171875 109.277344 C 64.003906 109.390625 63.855469 109.523438 63.726562 109.675781 C 62.90625 110.714844 62.277344 111.859375 61.84375 113.105469 C 61.40625 114.355469 61.191406 115.644531 61.1875 116.964844 L 61.1875 141.890625 C 61.1875 142.195312 61.242188 142.488281 61.355469 142.769531 C 61.464844 143.050781 61.625 143.304688 61.828125 143.523438 C 62.035156 143.746094 62.277344 143.921875 62.550781 144.054688 C 62.824219 144.183594 63.109375 144.261719 63.414062 144.28125 Z M 63.460938 144.257812 " fill-opacity="1" fill-rule="nonzero"/><path fill="#a4afe7" d="M 61.1875 122.367188 L 61.1875 133.503906 C 61.1875 133.820312 61.25 134.125 61.371094 134.417969 C 61.492188 134.710938 61.664062 134.96875 61.890625 135.191406 C 62.113281 135.417969 62.371094 135.589844 62.664062 135.710938 C 62.957031 135.832031 63.265625 135.894531 63.582031 135.894531 C 63.898438 135.894531 64.203125 135.832031 64.496094 135.710938 C 64.789062 135.589844 65.046875 135.417969 65.273438 135.191406 C 65.496094 134.96875 65.667969 134.710938 65.792969 134.417969 C 65.914062 134.125 65.972656 133.820312 65.972656 133.503906 L 65.972656 122.367188 C 65.972656 122.050781 65.914062 121.746094 65.792969 121.453125 C 65.667969 121.160156 65.496094 120.902344 65.273438 120.675781 C 65.046875 120.453125 64.789062 120.28125 64.496094 120.160156 C 64.203125 120.035156 63.898438 119.976562 63.582031 119.976562 C 63.265625 119.976562 62.957031 120.035156 62.664062 120.160156 C 62.371094 120.28125 62.113281 120.453125 61.890625 120.675781 C 61.664062 120.902344 61.492188 121.160156 61.371094 121.453125 C 61.25 121.746094 61.1875 122.050781 61.1875 122.367188 Z M 61.1875 122.367188 " fill-opacity="1" fill-rule="nonzero"/><path fill="#4a4b88" d="M 161.371094 246.183594 C 161.050781 246.183594 160.746094 246.125 160.453125 246.003906 C 160.160156 245.882812 159.902344 245.710938 159.679688 245.484375 C 159.453125 245.261719 159.28125 245.003906 159.160156 244.710938 C 159.039062 244.417969 158.976562 244.113281 158.976562 243.796875 L 158.976562 196.785156 C 158.976562 196.46875 159.039062 196.164062 159.160156 195.871094 C 159.28125 195.578125 159.453125 195.320312 159.679688 195.097656 C 159.902344 194.871094 160.160156 194.699219 160.453125 194.578125 C 160.746094 194.457031 161.050781 194.398438 161.371094 194.398438 C 161.6875 194.398438 161.992188 194.457031 162.285156 194.578125 C 162.578125 194.699219 162.835938 194.871094 163.0625 195.097656 C 163.285156 195.320312 163.457031 195.578125 163.578125 195.871094 C 163.699219 196.164062 163.761719 196.46875 163.761719 196.785156 L 163.761719 243.796875 C 163.761719 244.113281 163.699219 244.417969 163.578125 244.710938 C 163.457031 245.003906 163.285156 245.261719 163.0625 245.484375 C 162.835938 245.710938 162.578125 245.882812 162.285156 246.003906 C 161.992188 246.125 161.6875 246.183594 161.371094 246.183594 Z M 161.371094 246.183594 " fill-opacity="1" fill-rule="nonzero"/><path fill="#ff5246" d="M 143.574219 213.875 L 179.167969 213.875 C 179.601562 213.875 180.019531 213.957031 180.421875 214.125 C 180.824219 214.289062 181.175781 214.527344 181.484375 214.832031 C 181.792969 215.140625 182.027344 215.496094 182.195312 215.894531 C 182.359375 216.296875 182.445312 216.714844 182.445312 217.148438 L 182.445312 228.929688 C 182.445312 229.363281 182.359375 229.78125 182.195312 230.183594 C 182.027344 230.585938 181.792969 230.9375 181.484375 231.246094 C 181.175781 231.550781 180.824219 231.789062 180.421875 231.957031 C 180.019531 232.121094 179.601562 232.203125 179.167969 232.203125 L 143.574219 232.203125 C 143.136719 232.203125 142.71875 232.121094 142.320312 231.957031 C 141.917969 231.789062 141.5625 231.550781 141.253906 231.246094 C 140.949219 230.9375 140.710938 230.585938 140.542969 230.183594 C 140.378906 229.78125 140.296875 229.363281 140.296875 228.929688 L 140.296875 217.148438 C 140.296875 216.714844 140.378906 216.296875 140.542969 215.894531 C 140.710938 215.496094 140.949219 215.140625 141.253906 214.832031 C 141.5625 214.527344 141.917969 214.289062 142.320312 214.125 C 142.71875 213.957031 143.136719 213.875 143.574219 213.875 Z M 143.574219 213.875 " fill-opacity="1" fill-rule="nonzero"/><path fill="#ff8e6e" d="M 177.660156 219.515625 L 177.660156 226.5625 C 177.660156 226.800781 177.574219 227.003906 177.40625 227.171875 C 177.238281 227.339844 177.035156 227.425781 176.796875 227.425781 L 145.941406 227.425781 C 145.703125 227.425781 145.5 227.339844 145.332031 227.171875 C 145.164062 227.003906 145.078125 226.800781 145.078125 226.5625 L 145.078125 219.515625 C 145.078125 219.277344 145.164062 219.074219 145.332031 218.90625 C 145.5 218.738281 145.703125 218.652344 145.941406 218.652344 L 176.796875 218.652344 C 177.035156 218.652344 177.238281 218.738281 177.40625 218.90625 C 177.574219 219.074219 177.660156 219.277344 177.660156 219.515625 Z M 177.660156 219.515625 " fill-opacity="1" fill-rule="nonzero"/><g clip-path="url(#id1)"><path fill="#ff5246" d="M 143.574219 243.796875 L 179.167969 243.796875 C 179.601562 243.796875 180.019531 243.878906 180.421875 244.042969 C 180.824219 244.210938 181.175781 244.445312 181.484375 244.753906 C 181.792969 245.0625 182.027344 245.414062 182.195312 245.816406 C 182.359375 246.21875 182.445312 246.636719 182.445312 247.070312 L 182.445312 258.851562 C 182.445312 259.285156 182.359375 259.703125 182.195312 260.105469 C 182.027344 260.503906 181.792969 260.859375 181.484375 261.167969 C 181.175781 261.472656 180.824219 261.710938 180.421875 261.875 C 180.019531 262.042969 179.601562 262.125 179.167969 262.125 L 143.574219 262.125 C 143.136719 262.125 142.71875 262.042969 142.320312 261.875 C 141.917969 261.710938 141.5625 261.472656 141.253906 261.167969 C 140.949219 260.859375 140.710938 260.503906 140.542969 260.105469 C 140.378906 259.703125 140.296875 259.285156 140.296875 258.851562 L 140.296875 247.070312 C 140.296875 246.636719 140.378906 246.21875 140.542969 245.816406 C 140.710938 245.414062 140.949219 245.0625 141.253906 244.753906 C 141.5625 244.445312 141.917969 244.210938 142.320312 244.042969 C 142.71875 243.878906 143.136719 243.796875 143.574219 243.796875 Z M 143.574219 243.796875 " fill-opacity="1" fill-rule="nonzero"/></g><path fill="#ff8e6e" d="M 177.660156 249.460938 L 177.660156 256.507812 C 177.660156 256.746094 177.574219 256.949219 177.40625 257.117188 C 177.238281 257.285156 177.035156 257.371094 176.796875 257.371094 L 145.941406 257.371094 C 145.703125 257.371094 145.5 257.285156 145.332031 257.117188 C 145.164062 256.949219 145.078125 256.746094 145.078125 256.507812 L 145.078125 249.460938 C 145.078125 249.222656 145.164062 249.019531 145.332031 248.851562 C 145.5 248.683594 145.703125 248.597656 145.941406 248.597656 L 176.796875 248.597656 C 177.035156 248.597656 177.238281 248.683594 177.40625 248.851562 C 177.574219 249.019531 177.660156 249.222656 177.660156 249.460938 Z M 177.660156 249.460938 " fill-opacity="1" fill-rule="nonzero"/><path fill="#4a4b88" d="M 81.257812 214.351562 L 72.886719 214.351562 C 72.117188 214.351562 71.355469 214.273438 70.601562 214.121094 C 69.84375 213.972656 69.113281 213.746094 68.402344 213.453125 C 67.691406 213.15625 67.015625 212.792969 66.378906 212.367188 C 65.738281 211.9375 65.148438 211.449219 64.605469 210.90625 C 64.0625 210.359375 63.578125 209.769531 63.152344 209.128906 C 62.726562 208.488281 62.367188 207.8125 62.070312 207.101562 C 61.777344 206.390625 61.558594 205.65625 61.410156 204.902344 C 61.261719 204.148438 61.1875 203.386719 61.1875 202.617188 L 61.1875 180.25 C 61.1875 179.933594 61.25 179.628906 61.371094 179.335938 C 61.492188 179.042969 61.664062 178.78125 61.890625 178.558594 C 62.113281 178.335938 62.371094 178.160156 62.664062 178.039062 C 62.957031 177.917969 63.265625 177.859375 63.582031 177.859375 C 63.898438 177.859375 64.203125 177.917969 64.496094 178.039062 C 64.789062 178.160156 65.046875 178.335938 65.273438 178.558594 C 65.496094 178.78125 65.667969 179.042969 65.792969 179.335938 C 65.914062 179.628906 65.972656 179.933594 65.972656 180.25 L 65.972656 202.617188 C 65.972656 203.070312 66.015625 203.523438 66.105469 203.96875 C 66.195312 204.414062 66.324219 204.84375 66.5 205.265625 C 66.671875 205.683594 66.886719 206.082031 67.136719 206.460938 C 67.390625 206.839844 67.675781 207.1875 67.996094 207.511719 C 68.316406 207.832031 68.667969 208.117188 69.042969 208.371094 C 69.421875 208.625 69.820312 208.839844 70.238281 209.015625 C 70.660156 209.1875 71.089844 209.320312 71.535156 209.410156 C 71.980469 209.5 72.433594 209.546875 72.886719 209.546875 L 81.257812 209.546875 C 81.574219 209.546875 81.882812 209.609375 82.175781 209.730469 C 82.46875 209.851562 82.726562 210.023438 82.949219 210.25 C 83.175781 210.472656 83.347656 210.730469 83.46875 211.023438 C 83.589844 211.316406 83.652344 211.621094 83.652344 211.9375 C 83.652344 212.253906 83.589844 212.558594 83.46875 212.851562 C 83.347656 213.144531 83.175781 213.402344 82.949219 213.628906 C 82.726562 213.851562 82.46875 214.023438 82.175781 214.144531 C 81.882812 214.265625 81.574219 214.328125 81.257812 214.328125 Z M 81.257812 214.351562 " fill-opacity="1" fill-rule="nonzero"/><path fill="#4a4b88" d="M 81.257812 251.394531 L 72.886719 251.394531 C 72.117188 251.394531 71.355469 251.316406 70.601562 251.164062 C 69.847656 251.015625 69.117188 250.792969 68.410156 250.496094 C 67.699219 250.203125 67.023438 249.839844 66.386719 249.414062 C 65.746094 248.984375 65.15625 248.5 64.613281 247.957031 C 64.070312 247.414062 63.585938 246.820312 63.160156 246.183594 C 62.734375 245.542969 62.371094 244.871094 62.078125 244.160156 C 61.785156 243.449219 61.5625 242.71875 61.414062 241.964844 C 61.265625 241.214844 61.1875 240.453125 61.1875 239.683594 L 61.1875 202.617188 C 61.1875 202.300781 61.25 201.996094 61.371094 201.703125 C 61.492188 201.410156 61.664062 201.152344 61.890625 200.929688 C 62.113281 200.703125 62.371094 200.53125 62.664062 200.410156 C 62.957031 200.289062 63.265625 200.226562 63.582031 200.226562 C 63.898438 200.226562 64.203125 200.289062 64.496094 200.410156 C 64.789062 200.53125 65.046875 200.703125 65.273438 200.929688 C 65.496094 201.152344 65.667969 201.410156 65.792969 201.703125 C 65.914062 201.996094 65.972656 202.300781 65.972656 202.617188 L 65.972656 239.660156 C 65.972656 240.113281 66.015625 240.566406 66.105469 241.011719 C 66.195312 241.457031 66.324219 241.886719 66.5 242.308594 C 66.671875 242.726562 66.886719 243.125 67.136719 243.503906 C 67.390625 243.882812 67.675781 244.230469 67.996094 244.554688 C 68.316406 244.875 68.667969 245.160156 69.042969 245.414062 C 69.421875 245.667969 69.820312 245.882812 70.238281 246.058594 C 70.660156 246.230469 71.089844 246.363281 71.535156 246.453125 C 71.980469 246.542969 72.433594 246.589844 72.886719 246.589844 L 81.257812 246.589844 C 81.574219 246.589844 81.882812 246.652344 82.175781 246.773438 C 82.46875 246.894531 82.726562 247.066406 82.949219 247.292969 C 83.175781 247.515625 83.347656 247.773438 83.46875 248.066406 C 83.589844 248.359375 83.652344 248.664062 83.652344 248.980469 C 83.652344 249.296875 83.589844 249.601562 83.46875 249.894531 C 83.347656 250.1875 83.175781 250.445312 82.949219 250.671875 C 82.726562 250.894531 82.46875 251.066406 82.175781 251.1875 C 81.882812 251.308594 81.574219 251.371094 81.257812 251.371094 Z M 81.257812 251.394531 " fill-opacity="1" fill-rule="nonzero"/><path fill="#6d78bf" d="M 65.972656 219.945312 L 65.972656 197.289062 C 65.972656 196.972656 65.914062 196.667969 65.792969 196.375 C 65.667969 196.082031 65.496094 195.824219 65.273438 195.597656 C 65.046875 195.375 64.789062 195.203125 64.496094 195.082031 C 64.203125 194.960938 63.898438 194.898438 63.582031 194.898438 C 63.265625 194.898438 62.957031 194.960938 62.664062 195.082031 C 62.371094 195.203125 62.113281 195.375 61.890625 195.597656 C 61.664062 195.824219 61.492188 196.082031 61.371094 196.375 C 61.25 196.667969 61.1875 196.972656 61.1875 197.289062 L 61.1875 219.945312 C 61.1875 220.261719 61.25 220.566406 61.371094 220.859375 C 61.492188 221.152344 61.664062 221.410156 61.890625 221.632812 C 62.113281 221.859375 62.371094 222.03125 62.664062 222.152344 C 62.957031 222.273438 63.265625 222.335938 63.582031 222.335938 C 63.898438 222.335938 64.203125 222.273438 64.496094 222.152344 C 64.789062 222.03125 65.046875 221.859375 65.273438 221.632812 C 65.496094 221.410156 65.667969 221.152344 65.792969 220.859375 C 65.914062 220.566406 65.972656 220.261719 65.972656 219.945312 Z M 65.972656 219.945312 " fill-opacity="1" fill-rule="nonzero"/><path fill="#4a4b88" d="M 228.753906 189.617188 C 228.4375 189.617188 228.132812 189.554688 227.839844 189.433594 C 227.546875 189.3125 227.289062 189.140625 227.0625 188.917969 C 226.839844 188.691406 226.667969 188.433594 226.542969 188.140625 C 226.421875 187.847656 226.363281 187.542969 226.363281 187.226562 L 226.363281 162.230469 C 226.363281 161.914062 226.421875 161.605469 226.542969 161.316406 C 226.667969 161.023438 226.839844 160.761719 227.0625 160.539062 C 227.289062 160.316406 227.546875 160.140625 227.839844 160.019531 C 228.132812 159.898438 228.4375 159.839844 228.753906 159.839844 C 229.070312 159.839844 229.378906 159.898438 229.671875 160.019531 C 229.964844 160.140625 230.222656 160.316406 230.445312 160.539062 C 230.671875 160.761719 230.84375 161.023438 230.964844 161.316406 C 231.085938 161.605469 231.148438 161.914062 231.148438 162.230469 L 231.148438 187.226562 C 231.148438 187.542969 231.085938 187.847656 230.964844 188.140625 C 230.84375 188.433594 230.671875 188.691406 230.445312 188.917969 C 230.222656 189.140625 229.964844 189.3125 229.671875 189.433594 C 229.378906 189.554688 229.070312 189.617188 228.753906 189.617188 Z M 228.753906 189.617188 " fill-opacity="1" fill-rule="nonzero"/><path fill="#4a4b88" d="M 228.753906 238.464844 C 228.4375 238.464844 228.132812 238.40625 227.839844 238.285156 C 227.546875 238.164062 227.289062 237.988281 227.0625 237.765625 C 226.839844 237.542969 226.667969 237.285156 226.542969 236.992188 C 226.421875 236.699219 226.363281 236.394531 226.363281 236.074219 L 226.363281 223.960938 C 226.363281 223.640625 226.421875 223.335938 226.542969 223.042969 C 226.667969 222.753906 226.839844 222.492188 227.0625 222.269531 C 227.289062 222.046875 227.546875 221.871094 227.839844 221.75 C 228.132812 221.628906 228.4375 221.570312 228.753906 221.570312 C 229.070312 221.570312 229.378906 221.628906 229.671875 221.75 C 229.964844 221.871094 230.222656 222.046875 230.445312 222.269531 C 230.671875 222.492188 230.84375 222.753906 230.964844 223.042969 C 231.085938 223.335938 231.148438 223.640625 231.148438 223.960938 L 231.148438 236.074219 C 231.148438 236.394531 231.085938 236.699219 230.964844 236.992188 C 230.84375 237.285156 230.671875 237.542969 230.445312 237.765625 C 230.222656 237.988281 229.964844 238.164062 229.671875 238.285156 C 229.378906 238.40625 229.070312 238.464844 228.753906 238.464844 Z M 228.753906 238.464844 " fill-opacity="1" fill-rule="nonzero"/><path fill="#777dba" d="M 159.695312 121.746094 L 139.410156 110.417969 C 138.894531 110.128906 138.484375 109.734375 138.183594 109.222656 C 137.882812 108.714844 137.730469 108.164062 137.730469 107.574219 C 137.730469 106.980469 137.882812 106.429688 138.183594 105.921875 C 138.484375 105.414062 138.894531 105.015625 139.410156 104.730469 L 159.695312 93.425781 C 160.191406 93.152344 160.71875 93.011719 161.285156 93.011719 C 161.851562 93.011719 162.382812 93.152344 162.875 93.425781 L 183.257812 104.632812 C 183.773438 104.917969 184.183594 105.316406 184.484375 105.828125 C 184.785156 106.335938 184.9375 106.886719 184.9375 107.476562 C 184.9375 108.070312 184.785156 108.617188 184.484375 109.128906 C 184.183594 109.636719 183.773438 110.035156 183.257812 110.320312 L 162.972656 121.648438 C 162.472656 121.957031 161.933594 122.117188 161.347656 122.136719 C 160.761719 122.152344 160.210938 122.023438 159.695312 121.746094 Z M 159.695312 121.746094 " fill-opacity="1" fill-rule="nonzero"/><path fill="#9aa5dd" d="M 144.195312 107.574219 L 161.371094 98.011719 L 178.542969 107.574219 L 161.371094 117.15625 Z M 144.195312 107.574219 " fill-opacity="1" fill-rule="nonzero"/><path fill="#ffffff" d="M 166.871094 109.964844 L 156.011719 109.964844 C 155.695312 109.960938 155.390625 109.902344 155.097656 109.78125 C 154.804688 109.660156 154.542969 109.488281 154.320312 109.261719 C 154.09375 109.039062 153.921875 108.78125 153.800781 108.488281 C 153.679688 108.195312 153.621094 107.890625 153.621094 107.574219 C 153.621094 107.257812 153.679688 106.953125 153.800781 106.660156 C 153.921875 106.367188 154.09375 106.105469 154.320312 105.882812 C 154.542969 105.660156 154.804688 105.488281 155.097656 105.363281 C 155.390625 105.242188 155.695312 105.183594 156.011719 105.183594 L 166.871094 105.183594 C 167.1875 105.183594 167.492188 105.242188 167.785156 105.363281 C 168.078125 105.488281 168.339844 105.660156 168.5625 105.882812 C 168.789062 106.105469 168.960938 106.367188 169.082031 106.660156 C 169.203125 106.953125 169.261719 107.257812 169.261719 107.574219 C 169.261719 107.890625 169.203125 108.195312 169.082031 108.488281 C 168.960938 108.78125 168.789062 109.039062 168.5625 109.261719 C 168.339844 109.488281 168.078125 109.660156 167.785156 109.78125 C 167.492188 109.902344 167.1875 109.960938 166.871094 109.964844 Z M 166.871094 109.964844 " fill-opacity="1" fill-rule="nonzero"/><path fill="#ffffff" d="M 166.871094 189.617188 L 156.011719 189.617188 C 155.695312 189.617188 155.390625 189.554688 155.097656 189.433594 C 154.804688 189.3125 154.542969 189.140625 154.320312 188.917969 C 154.09375 188.691406 153.921875 188.433594 153.800781 188.140625 C 153.679688 187.847656 153.621094 187.542969 153.621094 187.226562 C 153.621094 186.910156 153.679688 186.605469 153.800781 186.3125 C 153.921875 186.019531 154.09375 185.761719 154.320312 185.539062 C 154.542969 185.3125 154.804688 185.140625 155.097656 185.019531 C 155.390625 184.898438 155.695312 184.835938 156.011719 184.835938 L 166.871094 184.835938 C 167.1875 184.835938 167.492188 184.898438 167.785156 185.019531 C 168.078125 185.140625 168.339844 185.3125 168.5625 185.539062 C 168.789062 185.761719 168.960938 186.019531 169.082031 186.3125 C 169.203125 186.605469 169.261719 186.910156 169.261719 187.226562 C 169.261719 187.542969 169.203125 187.847656 169.082031 188.140625 C 168.960938 188.433594 168.789062 188.691406 168.5625 188.917969 C 168.339844 189.140625 168.078125 189.3125 167.785156 189.433594 C 167.492188 189.554688 167.1875 189.617188 166.871094 189.617188 Z M 166.871094 189.617188 " fill-opacity="1" fill-rule="nonzero"/><path fill="#00b496" d="M 104.128906 107.574219 C 104.128906 108.4375 104.042969 109.289062 103.875 110.136719 C 103.707031 110.984375 103.457031 111.804688 103.125 112.601562 C 102.796875 113.402344 102.390625 114.15625 101.910156 114.875 C 101.429688 115.59375 100.882812 116.257812 100.273438 116.867188 C 99.664062 117.476562 99 118.023438 98.28125 118.503906 C 97.5625 118.980469 96.804688 119.386719 96.003906 119.714844 C 95.207031 120.046875 94.382812 120.296875 93.539062 120.464844 C 92.691406 120.632812 91.835938 120.71875 90.96875 120.71875 C 90.105469 120.71875 89.25 120.632812 88.402344 120.464844 C 87.554688 120.296875 86.734375 120.046875 85.9375 119.714844 C 85.136719 119.386719 84.378906 118.980469 83.660156 118.503906 C 82.941406 118.023438 82.277344 117.476562 81.667969 116.867188 C 81.058594 116.257812 80.511719 115.59375 80.03125 114.875 C 79.550781 114.15625 79.144531 113.402344 78.816406 112.601562 C 78.484375 111.804688 78.234375 110.984375 78.066406 110.136719 C 77.898438 109.289062 77.8125 108.4375 77.8125 107.574219 C 77.8125 106.710938 77.898438 105.855469 78.066406 105.007812 C 78.234375 104.164062 78.484375 103.339844 78.816406 102.542969 C 79.144531 101.746094 79.550781 100.988281 80.03125 100.269531 C 80.511719 99.554688 81.058594 98.890625 81.667969 98.277344 C 82.277344 97.667969 82.941406 97.125 83.660156 96.644531 C 84.378906 96.164062 85.136719 95.757812 85.9375 95.429688 C 86.734375 95.097656 87.554688 94.851562 88.402344 94.679688 C 89.25 94.511719 90.105469 94.429688 90.96875 94.429688 C 91.835938 94.429688 92.691406 94.511719 93.539062 94.679688 C 94.382812 94.851562 95.207031 95.097656 96.003906 95.429688 C 96.804688 95.757812 97.5625 96.164062 98.28125 96.644531 C 99 97.125 99.664062 97.667969 100.273438 98.277344 C 100.882812 98.890625 101.429688 99.554688 101.910156 100.269531 C 102.390625 100.988281 102.796875 101.746094 103.125 102.542969 C 103.457031 103.339844 103.707031 104.164062 103.875 105.007812 C 104.042969 105.855469 104.128906 106.710938 104.128906 107.574219 Z M 104.128906 107.574219 " fill-opacity="1" fill-rule="nonzero"/><path fill="#37d2b9" d="M 99.34375 107.574219 C 99.34375 108.121094 99.289062 108.667969 99.183594 109.203125 C 99.074219 109.742188 98.914062 110.265625 98.707031 110.773438 C 98.496094 111.28125 98.238281 111.761719 97.933594 112.21875 C 97.625 112.675781 97.28125 113.097656 96.890625 113.488281 C 96.503906 113.875 96.078125 114.222656 95.621094 114.527344 C 95.164062 114.832031 94.683594 115.089844 94.175781 115.300781 C 93.667969 115.511719 93.144531 115.667969 92.605469 115.777344 C 92.066406 115.882812 91.519531 115.9375 90.96875 115.9375 C 90.421875 115.9375 89.875 115.882812 89.335938 115.777344 C 88.796875 115.667969 88.273438 115.511719 87.765625 115.300781 C 87.257812 115.089844 86.777344 114.832031 86.320312 114.527344 C 85.863281 114.222656 85.4375 113.875 85.050781 113.488281 C 84.660156 113.097656 84.316406 112.675781 84.007812 112.21875 C 83.703125 111.761719 83.445312 111.28125 83.234375 110.773438 C 83.023438 110.265625 82.867188 109.742188 82.757812 109.203125 C 82.652344 108.667969 82.597656 108.121094 82.597656 107.574219 C 82.597656 107.023438 82.652344 106.480469 82.757812 105.941406 C 82.867188 105.402344 83.023438 104.878906 83.234375 104.371094 C 83.445312 103.863281 83.703125 103.382812 84.007812 102.925781 C 84.316406 102.46875 84.660156 102.046875 85.050781 101.660156 C 85.4375 101.269531 85.863281 100.921875 86.320312 100.617188 C 86.777344 100.3125 87.257812 100.054688 87.765625 99.84375 C 88.273438 99.636719 88.796875 99.476562 89.335938 99.371094 C 89.875 99.261719 90.421875 99.207031 90.96875 99.207031 C 91.519531 99.207031 92.066406 99.261719 92.605469 99.371094 C 93.144531 99.476562 93.667969 99.636719 94.175781 99.84375 C 94.683594 100.054688 95.164062 100.3125 95.621094 100.617188 C 96.078125 100.921875 96.503906 101.269531 96.890625 101.660156 C 97.28125 102.046875 97.625 102.46875 97.933594 102.925781 C 98.238281 103.382812 98.496094 103.863281 98.707031 104.371094 C 98.914062 104.878906 99.074219 105.402344 99.183594 105.941406 C 99.289062 106.480469 99.34375 107.023438 99.34375 107.574219 Z M 99.34375 107.574219 " fill-opacity="1" fill-rule="nonzero"/><path fill="#ffffff" d="M 94.726562 109.964844 L 87.214844 109.964844 C 86.898438 109.960938 86.59375 109.902344 86.300781 109.78125 C 86.007812 109.660156 85.746094 109.488281 85.523438 109.261719 C 85.300781 109.039062 85.125 108.78125 85.003906 108.488281 C 84.882812 108.195312 84.824219 107.890625 84.824219 107.574219 C 84.824219 107.257812 84.882812 106.953125 85.003906 106.660156 C 85.125 106.367188 85.300781 106.105469 85.523438 105.882812 C 85.746094 105.660156 86.007812 105.488281 86.300781 105.363281 C 86.59375 105.242188 86.898438 105.183594 87.214844 105.183594 L 94.726562 105.183594 C 95.042969 105.183594 95.347656 105.242188 95.640625 105.363281 C 95.933594 105.488281 96.191406 105.660156 96.417969 105.882812 C 96.640625 106.105469 96.816406 106.367188 96.9375 106.660156 C 97.058594 106.953125 97.117188 107.257812 97.117188 107.574219 C 97.117188 107.890625 97.058594 108.195312 96.9375 108.488281 C 96.816406 108.78125 96.640625 109.039062 96.417969 109.261719 C 96.191406 109.488281 95.933594 109.660156 95.640625 109.78125 C 95.347656 109.902344 95.042969 109.960938 94.726562 109.964844 Z M 94.726562 109.964844 " fill-opacity="1" fill-rule="nonzero"/><g clip-path="url(#id2)"><path fill="#619fff" d="M 143.574219 37.71875 L 179.167969 37.71875 C 179.601562 37.71875 180.019531 37.800781 180.421875 37.964844 C 180.824219 38.132812 181.175781 38.371094 181.484375 38.675781 C 181.792969 38.984375 182.027344 39.335938 182.195312 39.738281 C 182.359375 40.140625 182.445312 40.558594 182.445312 40.992188 L 182.445312 71.175781 C 182.445312 71.609375 182.359375 72.027344 182.195312 72.429688 C 182.027344 72.828125 181.792969 73.183594 181.484375 73.492188 C 181.175781 73.796875 180.824219 74.035156 180.421875 74.199219 C 180.019531 74.367188 179.601562 74.449219 179.167969 74.449219 L 143.574219 74.449219 C 143.136719 74.449219 142.71875 74.367188 142.320312 74.199219 C 141.917969 74.035156 141.5625 73.796875 141.253906 73.492188 C 140.949219 73.183594 140.710938 72.828125 140.542969 72.429688 C 140.378906 72.027344 140.296875 71.609375 140.296875 71.175781 L 140.296875 40.992188 C 140.296875 40.558594 140.378906 40.140625 140.542969 39.738281 C 140.710938 39.335938 140.949219 38.984375 141.253906 38.675781 C 141.5625 38.371094 141.917969 38.132812 142.320312 37.964844 C 142.71875 37.800781 143.136719 37.71875 143.574219 37.71875 Z M 143.574219 37.71875 " fill-opacity="1" fill-rule="nonzero"/></g><path fill="#84ccff" d="M 177.660156 44.625 L 177.660156 67.542969 C 177.660156 67.824219 177.605469 68.097656 177.496094 68.355469 C 177.390625 68.617188 177.234375 68.847656 177.035156 69.046875 C 176.835938 69.246094 176.605469 69.398438 176.34375 69.507812 C 176.085938 69.617188 175.8125 69.667969 175.53125 69.667969 L 147.207031 69.667969 C 146.925781 69.667969 146.65625 69.617188 146.394531 69.507812 C 146.132812 69.398438 145.902344 69.246094 145.703125 69.046875 C 145.503906 68.847656 145.351562 68.617188 145.242188 68.355469 C 145.132812 68.097656 145.078125 67.824219 145.078125 67.542969 L 145.078125 44.625 C 145.078125 44.34375 145.132812 44.070312 145.242188 43.808594 C 145.351562 43.550781 145.503906 43.320312 145.703125 43.121094 C 145.902344 42.921875 146.132812 42.765625 146.394531 42.660156 C 146.65625 42.550781 146.925781 42.496094 147.207031 42.496094 L 175.53125 42.496094 C 175.8125 42.496094 176.085938 42.550781 176.34375 42.660156 C 176.605469 42.765625 176.835938 42.921875 177.035156 43.121094 C 177.234375 43.320312 177.390625 43.550781 177.496094 43.808594 C 177.605469 44.070312 177.660156 44.34375 177.660156 44.625 Z M 177.660156 44.625 " fill-opacity="1" fill-rule="nonzero"/><path fill="#ffffff" d="M 171.417969 49.929688 L 151.324219 49.929688 C 151.003906 49.929688 150.699219 49.867188 150.40625 49.746094 C 150.113281 49.625 149.855469 49.453125 149.632812 49.230469 C 149.40625 49.003906 149.234375 48.746094 149.113281 48.453125 C 148.992188 48.160156 148.929688 47.855469 148.929688 47.539062 C 148.929688 47.222656 148.992188 46.917969 149.113281 46.625 C 149.234375 46.332031 149.40625 46.074219 149.632812 45.851562 C 149.855469 45.625 150.113281 45.453125 150.40625 45.332031 C 150.699219 45.210938 151.003906 45.148438 151.324219 45.148438 L 171.417969 45.148438 C 171.734375 45.148438 172.039062 45.210938 172.332031 45.332031 C 172.625 45.453125 172.882812 45.625 173.109375 45.851562 C 173.332031 46.074219 173.503906 46.332031 173.625 46.625 C 173.746094 46.917969 173.808594 47.222656 173.808594 47.539062 C 173.808594 47.855469 173.746094 48.160156 173.625 48.453125 C 173.503906 48.746094 173.332031 49.003906 173.109375 49.230469 C 172.882812 49.453125 172.625 49.625 172.332031 49.746094 C 172.039062 49.867188 171.734375 49.929688 171.417969 49.929688 Z M 171.417969 49.929688 " fill-opacity="1" fill-rule="nonzero"/><path fill="#ffffff" d="M 171.417969 58.484375 L 151.324219 58.484375 C 151.003906 58.484375 150.699219 58.425781 150.40625 58.304688 C 150.113281 58.183594 149.855469 58.007812 149.632812 57.785156 C 149.40625 57.5625 149.234375 57.300781 149.113281 57.011719 C 148.992188 56.71875 148.929688 56.414062 148.929688 56.09375 C 148.929688 55.777344 148.992188 55.472656 149.113281 55.179688 C 149.234375 54.886719 149.40625 54.628906 149.632812 54.40625 C 149.855469 54.179688 150.113281 54.007812 150.40625 53.886719 C 150.699219 53.765625 151.003906 53.707031 151.324219 53.707031 L 171.417969 53.707031 C 171.734375 53.707031 172.039062 53.765625 172.332031 53.886719 C 172.625 54.007812 172.882812 54.179688 173.109375 54.40625 C 173.332031 54.628906 173.503906 54.886719 173.625 55.179688 C 173.746094 55.472656 173.808594 55.777344 173.808594 56.09375 C 173.808594 56.414062 173.746094 56.71875 173.625 57.011719 C 173.503906 57.300781 173.332031 57.5625 173.109375 57.785156 C 172.882812 58.007812 172.625 58.183594 172.332031 58.304688 C 172.039062 58.425781 171.734375 58.484375 171.417969 58.484375 Z M 171.417969 58.484375 " fill-opacity="1" fill-rule="nonzero"/><path fill="#ffffff" d="M 171.417969 67.015625 L 151.324219 67.015625 C 151.003906 67.015625 150.699219 66.957031 150.40625 66.835938 C 150.113281 66.714844 149.855469 66.542969 149.632812 66.316406 C 149.40625 66.09375 149.234375 65.835938 149.113281 65.542969 C 148.992188 65.25 148.929688 64.945312 148.929688 64.628906 C 148.929688 64.308594 148.992188 64.003906 149.113281 63.710938 C 149.234375 63.417969 149.40625 63.160156 149.632812 62.9375 C 149.855469 62.714844 150.113281 62.539062 150.40625 62.417969 C 150.699219 62.296875 151.003906 62.238281 151.324219 62.238281 L 171.417969 62.238281 C 171.734375 62.238281 172.039062 62.296875 172.332031 62.417969 C 172.625 62.539062 172.882812 62.714844 173.109375 62.9375 C 173.332031 63.160156 173.503906 63.417969 173.625 63.710938 C 173.746094 64.003906 173.808594 64.308594 173.808594 64.628906 C 173.808594 64.945312 173.746094 65.25 173.625 65.542969 C 173.503906 65.835938 173.332031 66.09375 173.109375 66.316406 C 172.882812 66.542969 172.625 66.714844 172.332031 66.835938 C 172.039062 66.957031 171.734375 67.015625 171.417969 67.015625 Z M 171.417969 67.015625 " fill-opacity="1" fill-rule="nonzero"/><path fill="#777dba" d="M 159.695312 201.375 L 139.410156 190.070312 C 138.894531 189.78125 138.484375 189.382812 138.183594 188.871094 C 137.886719 188.359375 137.734375 187.808594 137.734375 187.214844 C 137.734375 186.621094 137.886719 186.070312 138.183594 185.558594 C 138.484375 185.050781 138.894531 184.648438 139.410156 184.359375 L 159.695312 173.054688 C 160.191406 172.78125 160.71875 172.644531 161.285156 172.644531 C 161.851562 172.644531 162.382812 172.78125 162.875 173.054688 L 183.160156 184.359375 C 183.679688 184.648438 184.085938 185.050781 184.386719 185.558594 C 184.6875 186.070312 184.835938 186.621094 184.835938 187.214844 C 184.835938 187.808594 184.6875 188.359375 184.386719 188.871094 C 184.085938 189.382812 183.679688 189.78125 183.160156 190.070312 L 162.875 201.375 C 162.382812 201.648438 161.851562 201.785156 161.285156 201.785156 C 160.71875 201.785156 160.191406 201.648438 159.695312 201.375 Z M 159.695312 201.375 " fill-opacity="1" fill-rule="nonzero"/><path fill="#9aa5dd" d="M 144.195312 187.203125 L 161.371094 177.644531 L 178.542969 187.226562 L 161.371094 196.785156 Z M 144.195312 187.203125 " fill-opacity="1" fill-rule="nonzero"/><g clip-path="url(#id3)"><path fill="#00b496" d="M 76.738281 167.105469 C 76.738281 167.96875 76.652344 168.824219 76.484375 169.667969 C 76.316406 170.515625 76.066406 171.335938 75.734375 172.132812 C 75.40625 172.933594 75 173.6875 74.519531 174.40625 C 74.039062 175.125 73.496094 175.789062 72.882812 176.398438 C 72.273438 177.007812 71.609375 177.554688 70.890625 178.035156 C 70.171875 178.511719 69.414062 178.917969 68.617188 179.25 C 67.816406 179.578125 66.996094 179.828125 66.148438 179.996094 C 65.300781 180.164062 64.445312 180.25 63.582031 180.25 C 62.71875 180.25 61.863281 180.164062 61.015625 179.996094 C 60.167969 179.828125 59.34375 179.578125 58.546875 179.25 C 57.75 178.917969 56.988281 178.511719 56.273438 178.035156 C 55.554688 177.554688 54.890625 177.007812 54.277344 176.398438 C 53.667969 175.789062 53.121094 175.125 52.640625 174.40625 C 52.160156 173.6875 51.757812 172.933594 51.425781 172.132812 C 51.09375 171.335938 50.847656 170.515625 50.675781 169.667969 C 50.507812 168.824219 50.425781 167.96875 50.425781 167.105469 C 50.425781 166.242188 50.507812 165.386719 50.675781 164.539062 C 50.847656 163.695312 51.09375 162.871094 51.425781 162.074219 C 51.757812 161.277344 52.160156 160.519531 52.640625 159.800781 C 53.121094 159.085938 53.667969 158.421875 54.277344 157.808594 C 54.890625 157.199219 55.554688 156.65625 56.273438 156.175781 C 56.988281 155.695312 57.75 155.292969 58.546875 154.960938 C 59.34375 154.628906 60.167969 154.382812 61.015625 154.210938 C 61.863281 154.042969 62.71875 153.960938 63.582031 153.960938 C 64.445312 153.960938 65.300781 154.042969 66.148438 154.210938 C 66.996094 154.382812 67.816406 154.628906 68.617188 154.960938 C 69.414062 155.292969 70.171875 155.695312 70.890625 156.175781 C 71.609375 156.65625 72.273438 157.199219 72.882812 157.808594 C 73.496094 158.421875 74.039062 159.085938 74.519531 159.800781 C 75 160.519531 75.40625 161.277344 75.734375 162.074219 C 76.066406 162.871094 76.316406 163.695312 76.484375 164.539062 C 76.652344 165.386719 76.738281 166.242188 76.738281 167.105469 Z M 76.738281 167.105469 " fill-opacity="1" fill-rule="nonzero"/></g><path fill="#37d2b9" d="M 63.582031 175.46875 C 63.03125 175.46875 62.484375 175.417969 61.945312 175.3125 C 61.40625 175.207031 60.882812 175.050781 60.375 174.839844 C 59.863281 174.632812 59.382812 174.375 58.921875 174.070312 C 58.464844 173.765625 58.042969 173.421875 57.652344 173.035156 C 57.261719 172.644531 56.914062 172.222656 56.605469 171.765625 C 56.300781 171.3125 56.039062 170.828125 55.828125 170.320312 C 55.617188 169.816406 55.457031 169.292969 55.347656 168.753906 C 55.242188 168.214844 55.1875 167.671875 55.183594 167.121094 C 55.183594 166.570312 55.238281 166.027344 55.34375 165.488281 C 55.449219 164.949219 55.605469 164.425781 55.816406 163.917969 C 56.027344 163.410156 56.285156 162.925781 56.589844 162.46875 C 56.894531 162.011719 57.242188 161.585938 57.628906 161.199219 C 58.015625 160.808594 58.441406 160.460938 58.898438 160.15625 C 59.355469 159.851562 59.835938 159.589844 60.34375 159.378906 C 60.851562 159.167969 61.375 159.011719 61.914062 158.902344 C 62.453125 158.792969 63 158.742188 63.550781 158.738281 C 64.097656 158.738281 64.644531 158.792969 65.183594 158.898438 C 65.722656 159.007812 66.246094 159.164062 66.753906 159.375 C 67.265625 159.585938 67.746094 159.84375 68.203125 160.148438 C 68.660156 160.453125 69.085938 160.796875 69.472656 161.1875 C 69.863281 161.574219 70.210938 162 70.515625 162.453125 C 70.824219 162.910156 71.082031 163.394531 71.292969 163.902344 C 71.503906 164.410156 71.660156 164.933594 71.769531 165.472656 C 71.875 166.011719 71.929688 166.554688 71.929688 167.105469 C 71.929688 167.652344 71.875 168.195312 71.769531 168.734375 C 71.664062 169.269531 71.503906 169.792969 71.292969 170.300781 C 71.085938 170.804688 70.828125 171.289062 70.523438 171.746094 C 70.21875 172.199219 69.875 172.621094 69.484375 173.011719 C 69.097656 173.398438 68.675781 173.746094 68.222656 174.050781 C 67.765625 174.355469 67.285156 174.613281 66.777344 174.824219 C 66.269531 175.035156 65.75 175.195312 65.210938 175.304688 C 64.671875 175.414062 64.128906 175.46875 63.582031 175.46875 Z M 63.582031 175.46875 " fill-opacity="1" fill-rule="nonzero"/><g clip-path="url(#id4)"><path fill="#00b496" d="M 241.910156 249.21875 C 241.910156 250.082031 241.828125 250.9375 241.660156 251.785156 C 241.488281 252.632812 241.242188 253.453125 240.910156 254.25 C 240.578125 255.046875 240.175781 255.804688 239.695312 256.523438 C 239.214844 257.242188 238.667969 257.902344 238.058594 258.515625 C 237.445312 259.125 236.78125 259.667969 236.0625 260.148438 C 235.347656 260.628906 234.585938 261.035156 233.789062 261.363281 C 232.992188 261.695312 232.167969 261.945312 231.320312 262.113281 C 230.472656 262.28125 229.617188 262.363281 228.753906 262.363281 C 227.890625 262.363281 227.035156 262.28125 226.1875 262.113281 C 225.339844 261.945312 224.519531 261.695312 223.71875 261.363281 C 222.921875 261.035156 222.164062 260.628906 221.445312 260.148438 C 220.726562 259.667969 220.0625 259.125 219.453125 258.515625 C 218.839844 257.902344 218.296875 257.242188 217.816406 256.523438 C 217.335938 255.804688 216.929688 255.046875 216.601562 254.25 C 216.269531 253.453125 216.019531 252.632812 215.851562 251.785156 C 215.683594 250.9375 215.597656 250.082031 215.597656 249.21875 C 215.597656 248.355469 215.683594 247.503906 215.851562 246.65625 C 216.019531 245.808594 216.269531 244.988281 216.601562 244.191406 C 216.929688 243.394531 217.335938 242.636719 217.816406 241.917969 C 218.296875 241.199219 218.839844 240.535156 219.453125 239.925781 C 220.0625 239.316406 220.726562 238.769531 221.445312 238.292969 C 222.164062 237.8125 222.921875 237.40625 223.71875 237.078125 C 224.519531 236.746094 225.339844 236.496094 226.1875 236.328125 C 227.035156 236.160156 227.890625 236.074219 228.753906 236.074219 C 229.617188 236.074219 230.472656 236.160156 231.320312 236.328125 C 232.167969 236.496094 232.992188 236.746094 233.789062 237.078125 C 234.585938 237.40625 235.347656 237.8125 236.0625 238.292969 C 236.78125 238.769531 237.445312 239.316406 238.058594 239.925781 C 238.667969 240.535156 239.214844 241.199219 239.695312 241.917969 C 240.175781 242.636719 240.578125 243.394531 240.910156 244.191406 C 241.242188 244.988281 241.488281 245.808594 241.660156 246.65625 C 241.828125 247.503906 241.910156 248.355469 241.910156 249.21875 Z M 241.910156 249.21875 " fill-opacity="1" fill-rule="nonzero"/></g><path fill="#37d2b9" d="M 228.753906 257.585938 C 228.203125 257.585938 227.660156 257.53125 227.121094 257.425781 C 226.582031 257.316406 226.058594 257.15625 225.550781 256.949219 C 225.042969 256.738281 224.558594 256.480469 224.101562 256.175781 C 223.644531 255.871094 223.222656 255.523438 222.835938 255.136719 C 222.445312 254.746094 222.097656 254.324219 221.792969 253.867188 C 221.488281 253.410156 221.230469 252.929688 221.019531 252.421875 C 220.808594 251.914062 220.652344 251.390625 220.542969 250.851562 C 220.4375 250.3125 220.382812 249.769531 220.382812 249.21875 C 220.382812 248.671875 220.4375 248.128906 220.542969 247.589844 C 220.652344 247.050781 220.808594 246.527344 221.019531 246.019531 C 221.230469 245.511719 221.488281 245.03125 221.792969 244.574219 C 222.097656 244.117188 222.445312 243.695312 222.835938 243.304688 C 223.222656 242.917969 223.644531 242.570312 224.101562 242.265625 C 224.558594 241.960938 225.042969 241.703125 225.550781 241.492188 C 226.058594 241.28125 226.582031 241.125 227.121094 241.015625 C 227.660156 240.910156 228.203125 240.855469 228.753906 240.855469 C 229.304688 240.855469 229.847656 240.910156 230.386719 241.015625 C 230.925781 241.125 231.449219 241.28125 231.957031 241.492188 C 232.464844 241.703125 232.949219 241.960938 233.40625 242.265625 C 233.863281 242.570312 234.285156 242.917969 234.675781 243.304688 C 235.0625 243.695312 235.410156 244.117188 235.714844 244.574219 C 236.023438 245.03125 236.28125 245.511719 236.488281 246.019531 C 236.699219 246.527344 236.859375 247.050781 236.964844 247.589844 C 237.074219 248.128906 237.128906 248.671875 237.128906 249.21875 C 237.128906 249.769531 237.074219 250.3125 236.964844 250.851562 C 236.859375 251.390625 236.699219 251.914062 236.488281 252.421875 C 236.28125 252.929688 236.023438 253.410156 235.714844 253.867188 C 235.410156 254.324219 235.0625 254.746094 234.675781 255.136719 C 234.285156 255.523438 233.863281 255.871094 233.40625 256.175781 C 232.949219 256.480469 232.464844 256.738281 231.957031 256.949219 C 231.449219 257.15625 230.925781 257.316406 230.386719 257.425781 C 229.847656 257.53125 229.304688 257.585938 228.753906 257.585938 Z M 228.753906 257.585938 " fill-opacity="1" fill-rule="nonzero"/><path fill="#ffb075" d="M 235.117188 162.230469 L 222.390625 162.230469 C 221.59375 162.195312 220.804688 162.082031 220.027344 161.898438 C 219.246094 161.710938 218.496094 161.453125 217.765625 161.125 C 217.035156 160.792969 216.347656 160.398438 215.695312 159.9375 C 215.039062 159.476562 214.4375 158.957031 213.882812 158.378906 C 213.332031 157.800781 212.839844 157.175781 212.40625 156.503906 C 211.972656 155.832031 211.605469 155.125 211.308594 154.382812 C 211.007812 153.640625 210.785156 152.878906 210.632812 152.09375 C 210.480469 151.308594 210.40625 150.515625 210.40625 149.71875 C 210.40625 148.917969 210.480469 148.128906 210.632812 147.34375 C 210.785156 146.558594 211.007812 145.792969 211.308594 145.050781 C 211.605469 144.3125 211.972656 143.605469 212.40625 142.933594 C 212.839844 142.261719 213.332031 141.636719 213.882812 141.058594 C 214.4375 140.480469 215.039062 139.960938 215.695312 139.5 C 216.347656 139.039062 217.035156 138.640625 217.765625 138.3125 C 218.496094 137.980469 219.246094 137.722656 220.027344 137.539062 C 220.804688 137.351562 221.59375 137.242188 222.390625 137.207031 L 235.117188 137.207031 C 235.964844 137.171875 236.804688 137.21875 237.640625 137.351562 C 238.472656 137.484375 239.289062 137.699219 240.078125 137.996094 C 240.871094 138.296875 241.625 138.667969 242.34375 139.121094 C 243.058594 139.570312 243.722656 140.085938 244.332031 140.671875 C 244.945312 141.257812 245.488281 141.894531 245.972656 142.589844 C 246.453125 143.285156 246.859375 144.023438 247.191406 144.800781 C 247.523438 145.578125 247.777344 146.378906 247.945312 147.207031 C 248.113281 148.035156 248.199219 148.871094 248.199219 149.71875 C 248.199219 150.5625 248.113281 151.398438 247.945312 152.226562 C 247.777344 153.054688 247.523438 153.859375 247.191406 154.636719 C 246.859375 155.414062 246.453125 156.148438 245.972656 156.84375 C 245.488281 157.539062 244.945312 158.179688 244.332031 158.765625 C 243.722656 159.347656 243.058594 159.867188 242.34375 160.316406 C 241.625 160.765625 240.871094 161.140625 240.078125 161.4375 C 239.289062 161.738281 238.472656 161.953125 237.640625 162.085938 C 236.804688 162.21875 235.964844 162.265625 235.117188 162.230469 Z M 235.117188 162.230469 " fill-opacity="1" fill-rule="nonzero"/><path fill="#ffd875" d="M 222.390625 157.449219 C 221.902344 157.421875 221.417969 157.347656 220.941406 157.230469 C 220.464844 157.113281 220.003906 156.949219 219.5625 156.742188 C 219.117188 156.535156 218.695312 156.289062 218.296875 156.003906 C 217.898438 155.71875 217.527344 155.394531 217.191406 155.039062 C 216.855469 154.683594 216.554688 154.296875 216.289062 153.886719 C 216.027344 153.472656 215.804688 153.039062 215.621094 152.582031 C 215.441406 152.125 215.304688 151.65625 215.210938 151.175781 C 215.117188 150.695312 215.070312 150.207031 215.070312 149.71875 C 215.070312 149.226562 215.117188 148.742188 215.210938 148.261719 C 215.304688 147.777344 215.441406 147.308594 215.621094 146.855469 C 215.804688 146.398438 216.027344 145.964844 216.289062 145.550781 C 216.554688 145.136719 216.855469 144.753906 217.191406 144.398438 C 217.527344 144.039062 217.898438 143.71875 218.296875 143.433594 C 218.695312 143.148438 219.117188 142.902344 219.5625 142.695312 C 220.003906 142.488281 220.464844 142.324219 220.941406 142.207031 C 221.417969 142.085938 221.902344 142.015625 222.390625 141.988281 L 235.117188 141.988281 C 235.644531 141.957031 236.167969 141.980469 236.6875 142.058594 C 237.210938 142.136719 237.71875 142.265625 238.214844 142.449219 C 238.707031 142.628906 239.179688 142.859375 239.628906 143.132812 C 240.074219 143.410156 240.492188 143.730469 240.875 144.09375 C 241.257812 144.453125 241.597656 144.851562 241.902344 145.285156 C 242.203125 145.714844 242.457031 146.171875 242.667969 146.65625 C 242.875 147.140625 243.03125 147.640625 243.140625 148.15625 C 243.246094 148.671875 243.296875 149.191406 243.296875 149.71875 C 243.296875 150.246094 243.246094 150.765625 243.140625 151.28125 C 243.03125 151.796875 242.875 152.296875 242.667969 152.78125 C 242.457031 153.265625 242.203125 153.722656 241.902344 154.152344 C 241.597656 154.585938 241.257812 154.980469 240.875 155.34375 C 240.492188 155.707031 240.074219 156.023438 239.628906 156.300781 C 239.179688 156.578125 238.707031 156.808594 238.214844 156.988281 C 237.71875 157.171875 237.210938 157.300781 236.6875 157.378906 C 236.167969 157.453125 235.644531 157.480469 235.117188 157.449219 Z M 222.390625 157.449219 " fill-opacity="1" fill-rule="nonzero"/><path fill="#ffb075" d="M 106.519531 224.484375 L 93.792969 224.484375 C 92.949219 224.523438 92.109375 224.472656 91.273438 224.339844 C 90.4375 224.207031 89.621094 223.992188 88.832031 223.695312 C 88.039062 223.398438 87.285156 223.023438 86.570312 222.574219 C 85.851562 222.121094 85.191406 221.605469 84.578125 221.019531 C 83.96875 220.4375 83.421875 219.796875 82.9375 219.101562 C 82.457031 218.40625 82.050781 217.671875 81.71875 216.894531 C 81.386719 216.113281 81.136719 215.3125 80.964844 214.484375 C 80.796875 213.65625 80.710938 212.820312 80.710938 211.972656 C 80.710938 211.128906 80.796875 210.292969 80.964844 209.464844 C 81.136719 208.636719 81.386719 207.832031 81.71875 207.054688 C 82.050781 206.277344 82.457031 205.542969 82.9375 204.847656 C 83.421875 204.152344 83.96875 203.511719 84.578125 202.929688 C 85.191406 202.34375 85.851562 201.824219 86.570312 201.375 C 87.285156 200.925781 88.039062 200.550781 88.832031 200.253906 C 89.621094 199.957031 90.4375 199.742188 91.273438 199.609375 C 92.109375 199.472656 92.949219 199.425781 93.792969 199.464844 L 106.519531 199.464844 C 107.320312 199.5 108.105469 199.609375 108.886719 199.792969 C 109.664062 199.980469 110.417969 200.238281 111.144531 200.566406 C 111.875 200.898438 112.566406 201.292969 113.21875 201.753906 C 113.871094 202.21875 114.472656 202.738281 115.027344 203.316406 C 115.578125 203.890625 116.074219 204.515625 116.507812 205.1875 C 116.941406 205.859375 117.304688 206.566406 117.605469 207.308594 C 117.902344 208.050781 118.125 208.8125 118.277344 209.597656 C 118.429688 210.382812 118.507812 211.175781 118.507812 211.972656 C 118.507812 212.773438 118.429688 213.566406 118.277344 214.351562 C 118.125 215.136719 117.902344 215.898438 117.605469 216.640625 C 117.304688 217.382812 116.941406 218.089844 116.507812 218.761719 C 116.074219 219.433594 115.578125 220.054688 115.027344 220.632812 C 114.472656 221.210938 113.871094 221.730469 113.21875 222.191406 C 112.566406 222.65625 111.875 223.050781 111.144531 223.378906 C 110.417969 223.710938 109.664062 223.96875 108.886719 224.152344 C 108.105469 224.339844 107.320312 224.449219 106.519531 224.484375 Z M 106.519531 224.484375 " fill-opacity="1" fill-rule="nonzero"/><path fill="#ffd875" d="M 93.792969 219.707031 C 93.265625 219.734375 92.742188 219.710938 92.222656 219.632812 C 91.699219 219.554688 91.191406 219.425781 90.699219 219.246094 C 90.203125 219.0625 89.730469 218.835938 89.285156 218.558594 C 88.835938 218.28125 88.417969 217.960938 88.035156 217.597656 C 87.652344 217.238281 87.3125 216.839844 87.011719 216.410156 C 86.707031 215.976562 86.453125 215.519531 86.246094 215.035156 C 86.035156 214.554688 85.878906 214.054688 85.773438 213.539062 C 85.664062 213.023438 85.613281 212.5 85.613281 211.972656 C 85.613281 211.449219 85.664062 210.925781 85.773438 210.410156 C 85.878906 209.894531 86.035156 209.394531 86.246094 208.910156 C 86.453125 208.429688 86.707031 207.972656 87.011719 207.539062 C 87.3125 207.109375 87.652344 206.710938 88.035156 206.347656 C 88.417969 205.988281 88.835938 205.667969 89.285156 205.390625 C 89.730469 205.113281 90.203125 204.882812 90.699219 204.703125 C 91.191406 204.523438 91.699219 204.394531 92.222656 204.316406 C 92.742188 204.238281 93.265625 204.214844 93.792969 204.242188 L 106.519531 204.242188 C 107.007812 204.269531 107.492188 204.34375 107.96875 204.460938 C 108.445312 204.582031 108.90625 204.742188 109.351562 204.949219 C 109.796875 205.15625 110.21875 205.402344 110.617188 205.6875 C 111.015625 205.976562 111.382812 206.296875 111.71875 206.652344 C 112.054688 207.007812 112.355469 207.394531 112.621094 207.808594 C 112.886719 208.21875 113.109375 208.65625 113.289062 209.109375 C 113.472656 209.566406 113.609375 210.035156 113.699219 210.515625 C 113.792969 210.996094 113.839844 211.484375 113.839844 211.972656 C 113.839844 212.464844 113.792969 212.949219 113.699219 213.433594 C 113.609375 213.914062 113.472656 214.382812 113.289062 214.835938 C 113.109375 215.292969 112.886719 215.726562 112.621094 216.140625 C 112.355469 216.554688 112.054688 216.9375 111.71875 217.296875 C 111.382812 217.652344 111.015625 217.972656 110.617188 218.257812 C 110.21875 218.546875 109.796875 218.792969 109.351562 219 C 108.90625 219.203125 108.445312 219.367188 107.96875 219.484375 C 107.492188 219.605469 107.007812 219.679688 106.519531 219.707031 Z M 93.792969 219.707031 " fill-opacity="1" fill-rule="nonzero"/><path fill="#ffb075" d="M 106.519531 261.742188 L 93.792969 261.742188 C 92.949219 261.78125 92.109375 261.730469 91.273438 261.597656 C 90.4375 261.464844 89.621094 261.25 88.832031 260.953125 C 88.039062 260.65625 87.285156 260.28125 86.570312 259.832031 C 85.851562 259.378906 85.191406 258.863281 84.578125 258.277344 C 83.96875 257.695312 83.421875 257.054688 82.9375 256.359375 C 82.457031 255.664062 82.050781 254.929688 81.71875 254.152344 C 81.386719 253.375 81.136719 252.570312 80.964844 251.742188 C 80.796875 250.914062 80.710938 250.078125 80.710938 249.230469 C 80.710938 248.386719 80.796875 247.550781 80.964844 246.722656 C 81.136719 245.894531 81.386719 245.089844 81.71875 244.3125 C 82.050781 243.535156 82.457031 242.800781 82.9375 242.105469 C 83.421875 241.410156 83.96875 240.769531 84.578125 240.1875 C 85.191406 239.601562 85.851562 239.085938 86.570312 238.632812 C 87.285156 238.183594 88.039062 237.808594 88.832031 237.511719 C 89.621094 237.214844 90.4375 237 91.273438 236.867188 C 92.109375 236.730469 92.949219 236.683594 93.792969 236.722656 L 106.519531 236.722656 C 107.320312 236.757812 108.105469 236.867188 108.886719 237.050781 C 109.664062 237.238281 110.417969 237.496094 111.144531 237.824219 C 111.875 238.15625 112.566406 238.550781 113.21875 239.011719 C 113.871094 239.476562 114.472656 239.996094 115.027344 240.574219 C 115.578125 241.148438 116.074219 241.773438 116.507812 242.445312 C 116.941406 243.117188 117.304688 243.824219 117.605469 244.566406 C 117.902344 245.308594 118.125 246.070312 118.277344 246.855469 C 118.429688 247.640625 118.507812 248.433594 118.507812 249.230469 C 118.507812 250.03125 118.429688 250.824219 118.277344 251.609375 C 118.125 252.394531 117.902344 253.15625 117.605469 253.898438 C 117.304688 254.640625 116.941406 255.347656 116.507812 256.019531 C 116.074219 256.691406 115.578125 257.3125 115.027344 257.890625 C 114.472656 258.46875 113.871094 258.988281 113.21875 259.449219 C 112.566406 259.914062 111.875 260.308594 111.144531 260.636719 C 110.417969 260.96875 109.664062 261.226562 108.886719 261.410156 C 108.105469 261.597656 107.320312 261.707031 106.519531 261.742188 Z M 106.519531 261.742188 " fill-opacity="1" fill-rule="nonzero"/><path fill="#ffd875" d="M 93.792969 256.964844 C 93.265625 256.992188 92.742188 256.96875 92.222656 256.890625 C 91.699219 256.8125 91.191406 256.683594 90.699219 256.503906 C 90.203125 256.320312 89.730469 256.09375 89.285156 255.816406 C 88.835938 255.539062 88.417969 255.21875 88.035156 254.855469 C 87.652344 254.496094 87.3125 254.097656 87.011719 253.667969 C 86.707031 253.234375 86.453125 252.777344 86.246094 252.292969 C 86.035156 251.8125 85.878906 251.3125 85.773438 250.796875 C 85.664062 250.28125 85.613281 249.757812 85.613281 249.230469 C 85.613281 248.707031 85.664062 248.183594 85.773438 247.667969 C 85.878906 247.152344 86.035156 246.652344 86.246094 246.167969 C 86.453125 245.6875 86.707031 245.230469 87.011719 244.796875 C 87.3125 244.367188 87.652344 243.96875 88.035156 243.605469 C 88.417969 243.246094 88.835938 242.925781 89.285156 242.648438 C 89.730469 242.371094 90.203125 242.140625 90.699219 241.960938 C 91.191406 241.78125 91.699219 241.652344 92.222656 241.574219 C 92.742188 241.496094 93.265625 241.472656 93.792969 241.5 L 106.519531 241.5 C 107.007812 241.527344 107.492188 241.601562 107.96875 241.71875 C 108.445312 241.839844 108.90625 242 109.351562 242.207031 C 109.796875 242.414062 110.21875 242.660156 110.617188 242.945312 C 111.015625 243.234375 111.382812 243.554688 111.71875 243.910156 C 112.054688 244.265625 112.355469 244.652344 112.621094 245.066406 C 112.886719 245.480469 113.109375 245.914062 113.289062 246.367188 C 113.472656 246.824219 113.609375 247.292969 113.699219 247.773438 C 113.792969 248.257812 113.839844 248.742188 113.839844 249.230469 C 113.839844 249.722656 113.792969 250.207031 113.699219 250.691406 C 113.609375 251.171875 113.472656 251.640625 113.289062 252.09375 C 113.109375 252.550781 112.886719 252.984375 112.621094 253.398438 C 112.355469 253.8125 112.054688 254.195312 111.71875 254.554688 C 111.382812 254.910156 111.015625 255.230469 110.617188 255.515625 C 110.21875 255.804688 109.796875 256.050781 109.351562 256.257812 C 108.90625 256.460938 108.445312 256.625 107.96875 256.746094 C 107.492188 256.863281 107.007812 256.9375 106.519531 256.964844 Z M 93.792969 256.964844 " fill-opacity="1" fill-rule="nonzero"/><g clip-path="url(#id5)"><path fill="#619fff" d="M 210.957031 187.226562 L 246.550781 187.226562 C 246.988281 187.226562 247.40625 187.308594 247.804688 187.476562 C 248.207031 187.640625 248.5625 187.878906 248.871094 188.1875 C 249.175781 188.492188 249.414062 188.847656 249.578125 189.25 C 249.746094 189.648438 249.828125 190.066406 249.828125 190.5 L 249.828125 220.683594 C 249.828125 221.121094 249.746094 221.535156 249.578125 221.9375 C 249.414062 222.339844 249.175781 222.691406 248.871094 223 C 248.5625 223.308594 248.207031 223.542969 247.804688 223.710938 C 247.40625 223.875 246.988281 223.960938 246.550781 223.960938 L 210.957031 223.960938 C 210.523438 223.960938 210.105469 223.875 209.703125 223.710938 C 209.300781 223.542969 208.949219 223.308594 208.640625 223 C 208.332031 222.695312 208.097656 222.339844 207.929688 221.9375 C 207.761719 221.535156 207.679688 221.121094 207.679688 220.683594 L 207.679688 190.5 C 207.679688 190.066406 207.761719 189.648438 207.929688 189.25 C 208.097656 188.847656 208.332031 188.492188 208.640625 188.1875 C 208.949219 187.878906 209.300781 187.640625 209.703125 187.476562 C 210.105469 187.308594 210.523438 187.226562 210.957031 187.226562 Z M 210.957031 187.226562 " fill-opacity="1" fill-rule="nonzero"/></g><path fill="#84ccff" d="M 245.070312 193.417969 L 245.070312 217.769531 C 245.070312 217.957031 245.03125 218.136719 244.960938 218.308594 C 244.890625 218.480469 244.789062 218.632812 244.65625 218.765625 C 244.523438 218.898438 244.371094 219 244.199219 219.074219 C 244.023438 219.144531 243.84375 219.179688 243.65625 219.179688 L 213.898438 219.179688 C 213.710938 219.179688 213.53125 219.144531 213.359375 219.074219 C 213.1875 219 213.035156 218.898438 212.902344 218.765625 C 212.769531 218.632812 212.667969 218.480469 212.597656 218.308594 C 212.523438 218.136719 212.488281 217.957031 212.488281 217.769531 L 212.488281 193.417969 C 212.488281 193.230469 212.523438 193.050781 212.597656 192.878906 C 212.667969 192.703125 212.769531 192.550781 212.902344 192.417969 C 213.035156 192.289062 213.1875 192.1875 213.359375 192.113281 C 213.53125 192.042969 213.710938 192.007812 213.898438 192.007812 L 243.65625 192.007812 C 243.84375 192.007812 244.023438 192.042969 244.199219 192.113281 C 244.371094 192.1875 244.523438 192.289062 244.65625 192.417969 C 244.789062 192.550781 244.890625 192.703125 244.960938 192.878906 C 245.03125 193.050781 245.070312 193.230469 245.070312 193.417969 Z M 245.070312 193.417969 " fill-opacity="1" fill-rule="nonzero"/><path fill="#ffffff" d="M 238.800781 199.4375 L 218.730469 199.4375 C 218.414062 199.4375 218.109375 199.378906 217.816406 199.257812 C 217.523438 199.136719 217.265625 198.964844 217.039062 198.738281 C 216.816406 198.515625 216.644531 198.257812 216.523438 197.964844 C 216.402344 197.671875 216.339844 197.367188 216.339844 197.050781 C 216.339844 196.734375 216.402344 196.425781 216.523438 196.136719 C 216.644531 195.84375 216.816406 195.582031 217.039062 195.359375 C 217.265625 195.136719 217.523438 194.960938 217.816406 194.839844 C 218.109375 194.71875 218.414062 194.660156 218.730469 194.660156 L 238.800781 194.660156 C 239.117188 194.660156 239.425781 194.71875 239.71875 194.839844 C 240.011719 194.960938 240.269531 195.136719 240.492188 195.359375 C 240.71875 195.582031 240.890625 195.84375 241.011719 196.136719 C 241.132812 196.425781 241.195312 196.734375 241.195312 197.050781 C 241.195312 197.367188 241.132812 197.671875 241.011719 197.964844 C 240.890625 198.257812 240.71875 198.515625 240.492188 198.738281 C 240.269531 198.964844 240.011719 199.136719 239.71875 199.257812 C 239.425781 199.378906 239.117188 199.4375 238.800781 199.4375 Z M 238.800781 199.4375 " fill-opacity="1" fill-rule="nonzero"/><path fill="#ffffff" d="M 238.800781 207.972656 L 218.730469 207.972656 C 218.414062 207.972656 218.109375 207.910156 217.816406 207.789062 C 217.523438 207.667969 217.265625 207.496094 217.039062 207.269531 C 216.816406 207.046875 216.644531 206.789062 216.523438 206.496094 C 216.402344 206.203125 216.339844 205.898438 216.339844 205.582031 C 216.339844 205.265625 216.402344 204.960938 216.523438 204.667969 C 216.644531 204.375 216.816406 204.117188 217.039062 203.890625 C 217.265625 203.667969 217.523438 203.496094 217.816406 203.375 C 218.109375 203.253906 218.414062 203.191406 218.730469 203.191406 L 238.800781 203.191406 C 239.117188 203.191406 239.425781 203.253906 239.71875 203.375 C 240.011719 203.496094 240.269531 203.667969 240.492188 203.890625 C 240.71875 204.117188 240.890625 204.375 241.011719 204.667969 C 241.132812 204.960938 241.195312 205.265625 241.195312 205.582031 C 241.195312 205.898438 241.132812 206.203125 241.011719 206.496094 C 240.890625 206.789062 240.71875 207.046875 240.492188 207.269531 C 240.269531 207.496094 240.011719 207.667969 239.71875 207.789062 C 239.425781 207.910156 239.117188 207.972656 238.800781 207.972656 Z M 238.800781 207.972656 " fill-opacity="1" fill-rule="nonzero"/><path fill="#ffffff" d="M 238.800781 216.527344 L 218.730469 216.527344 C 218.414062 216.527344 218.109375 216.464844 217.816406 216.34375 C 217.523438 216.222656 217.265625 216.050781 217.039062 215.828125 C 216.816406 215.601562 216.644531 215.34375 216.523438 215.050781 C 216.402344 214.757812 216.339844 214.453125 216.339844 214.136719 C 216.339844 213.820312 216.402344 213.515625 216.523438 213.222656 C 216.644531 212.929688 216.816406 212.671875 217.039062 212.445312 C 217.265625 212.222656 217.523438 212.050781 217.816406 211.929688 C 218.109375 211.808594 218.414062 211.746094 218.730469 211.746094 L 238.800781 211.746094 C 239.117188 211.746094 239.425781 211.808594 239.71875 211.929688 C 240.011719 212.050781 240.269531 212.222656 240.492188 212.445312 C 240.71875 212.671875 240.890625 212.929688 241.011719 213.222656 C 241.132812 213.515625 241.195312 213.820312 241.195312 214.136719 C 241.195312 214.453125 241.132812 214.757812 241.011719 215.050781 C 240.890625 215.34375 240.71875 215.601562 240.492188 215.828125 C 240.269531 216.050781 240.011719 216.222656 239.71875 216.34375 C 239.425781 216.464844 239.117188 216.527344 238.800781 216.527344 Z M 238.800781 216.527344 " fill-opacity="1" fill-rule="nonzero"/><path fill="#ffffff" d="M 234.878906 152.121094 L 222.65625 152.121094 C 222.335938 152.121094 222.03125 152.058594 221.738281 151.9375 C 221.445312 151.816406 221.1875 151.644531 220.964844 151.421875 C 220.738281 151.195312 220.566406 150.9375 220.445312 150.644531 C 220.324219 150.351562 220.261719 150.046875 220.261719 149.730469 C 220.261719 149.414062 220.324219 149.109375 220.445312 148.816406 C 220.566406 148.523438 220.738281 148.265625 220.964844 148.039062 C 221.1875 147.816406 221.445312 147.644531 221.738281 147.523438 C 222.03125 147.402344 222.335938 147.339844 222.65625 147.339844 L 234.878906 147.339844 C 235.195312 147.339844 235.5 147.402344 235.792969 147.523438 C 236.085938 147.644531 236.34375 147.816406 236.570312 148.039062 C 236.792969 148.265625 236.96875 148.523438 237.089844 148.816406 C 237.210938 149.109375 237.269531 149.414062 237.269531 149.730469 C 237.269531 150.046875 237.210938 150.351562 237.089844 150.644531 C 236.96875 150.9375 236.792969 151.195312 236.570312 151.421875 C 236.34375 151.644531 236.085938 151.816406 235.792969 151.9375 C 235.5 152.058594 235.195312 152.121094 234.878906 152.121094 Z M 234.878906 152.121094 " fill-opacity="1" fill-rule="nonzero"/><path fill="#ffffff" d="M 106.257812 214.351562 L 94.03125 214.351562 C 93.714844 214.351562 93.410156 214.292969 93.117188 214.171875 C 92.824219 214.050781 92.566406 213.875 92.339844 213.652344 C 92.117188 213.429688 91.945312 213.167969 91.824219 212.875 C 91.699219 212.585938 91.640625 212.277344 91.640625 211.960938 C 91.640625 211.644531 91.699219 211.339844 91.824219 211.046875 C 91.945312 210.753906 92.117188 210.496094 92.339844 210.273438 C 92.566406 210.046875 92.824219 209.875 93.117188 209.753906 C 93.410156 209.632812 93.714844 209.574219 94.03125 209.574219 L 106.257812 209.574219 C 106.574219 209.574219 106.878906 209.632812 107.171875 209.753906 C 107.464844 209.875 107.722656 210.046875 107.949219 210.273438 C 108.171875 210.496094 108.34375 210.753906 108.464844 211.046875 C 108.585938 211.339844 108.648438 211.644531 108.648438 211.960938 C 108.648438 212.277344 108.585938 212.585938 108.464844 212.875 C 108.34375 213.167969 108.171875 213.429688 107.949219 213.652344 C 107.722656 213.875 107.464844 214.050781 107.171875 214.171875 C 106.878906 214.292969 106.574219 214.351562 106.257812 214.351562 Z M 106.257812 214.351562 " fill-opacity="1" fill-rule="nonzero"/><path fill="#ffffff" d="M 106.257812 251.609375 L 94.03125 251.609375 C 93.714844 251.609375 93.410156 251.550781 93.117188 251.429688 C 92.824219 251.308594 92.566406 251.132812 92.339844 250.910156 C 92.117188 250.6875 91.945312 250.425781 91.824219 250.132812 C 91.699219 249.84375 91.640625 249.539062 91.640625 249.21875 C 91.640625 248.902344 91.699219 248.597656 91.824219 248.304688 C 91.945312 248.011719 92.117188 247.753906 92.339844 247.53125 C 92.566406 247.304688 92.824219 247.132812 93.117188 247.011719 C 93.410156 246.890625 93.714844 246.832031 94.03125 246.832031 L 106.257812 246.832031 C 106.574219 246.832031 106.878906 246.890625 107.171875 247.011719 C 107.464844 247.132812 107.722656 247.304688 107.949219 247.53125 C 108.171875 247.753906 108.34375 248.011719 108.464844 248.304688 C 108.585938 248.597656 108.648438 248.902344 108.648438 249.21875 C 108.648438 249.539062 108.585938 249.84375 108.464844 250.132812 C 108.34375 250.425781 108.171875 250.6875 107.949219 250.910156 C 107.722656 251.132812 107.464844 251.308594 107.171875 251.429688 C 106.878906 251.550781 106.574219 251.609375 106.257812 251.609375 Z M 106.257812 251.609375 " fill-opacity="1" fill-rule="nonzero"/><path fill="#ff5246" d="M 143.574219 140.601562 L 179.167969 140.601562 C 179.601562 140.601562 180.019531 140.683594 180.421875 140.851562 C 180.824219 141.015625 181.175781 141.253906 181.484375 141.558594 C 181.792969 141.867188 182.027344 142.222656 182.195312 142.621094 C 182.359375 143.023438 182.445312 143.441406 182.445312 143.875 L 182.445312 155.65625 C 182.445312 156.089844 182.359375 156.507812 182.195312 156.910156 C 182.027344 157.3125 181.792969 157.664062 181.484375 157.972656 C 181.175781 158.277344 180.824219 158.515625 180.421875 158.683594 C 180.019531 158.847656 179.601562 158.929688 179.167969 158.929688 L 143.574219 158.929688 C 143.136719 158.929688 142.71875 158.847656 142.320312 158.683594 C 141.917969 158.515625 141.5625 158.277344 141.253906 157.972656 C 140.949219 157.664062 140.710938 157.3125 140.542969 156.910156 C 140.378906 156.507812 140.296875 156.089844 140.296875 155.65625 L 140.296875 143.875 C 140.296875 143.441406 140.378906 143.023438 140.542969 142.621094 C 140.710938 142.222656 140.949219 141.867188 141.253906 141.558594 C 141.5625 141.253906 141.917969 141.015625 142.320312 140.851562 C 142.71875 140.683594 143.136719 140.601562 143.574219 140.601562 Z M 143.574219 140.601562 " fill-opacity="1" fill-rule="nonzero"/><path fill="#ff8e6e" d="M 177.660156 146.242188 L 177.660156 153.292969 C 177.660156 153.527344 177.574219 153.730469 177.40625 153.898438 C 177.238281 154.066406 177.035156 154.152344 176.796875 154.152344 L 145.941406 154.152344 C 145.703125 154.152344 145.5 154.066406 145.332031 153.898438 C 145.164062 153.730469 145.078125 153.527344 145.078125 153.292969 L 145.078125 146.242188 C 145.078125 146.003906 145.164062 145.800781 145.332031 145.632812 C 145.5 145.464844 145.703125 145.378906 145.941406 145.378906 L 176.796875 145.378906 C 177.035156 145.378906 177.238281 145.464844 177.40625 145.632812 C 177.574219 145.800781 177.660156 146.003906 177.660156 146.242188 Z M 177.660156 146.242188 " fill-opacity="1" fill-rule="nonzero"/><path fill="#ffffff" d="M 171.65625 152.144531 L 151.082031 152.144531 C 150.765625 152.144531 150.460938 152.082031 150.167969 151.960938 C 149.875 151.839844 149.617188 151.667969 149.390625 151.445312 C 149.167969 151.21875 148.996094 150.960938 148.875 150.667969 C 148.753906 150.375 148.691406 150.070312 148.691406 149.753906 C 148.691406 149.4375 148.753906 149.132812 148.875 148.839844 C 148.996094 148.546875 149.167969 148.289062 149.390625 148.0625 C 149.617188 147.839844 149.875 147.667969 150.167969 147.546875 C 150.460938 147.425781 150.765625 147.363281 151.082031 147.363281 L 171.65625 147.363281 C 171.972656 147.363281 172.277344 147.425781 172.570312 147.546875 C 172.863281 147.667969 173.121094 147.839844 173.347656 148.0625 C 173.570312 148.289062 173.746094 148.546875 173.867188 148.839844 C 173.988281 149.132812 174.046875 149.4375 174.046875 149.753906 C 174.046875 150.070312 173.988281 150.375 173.867188 150.667969 C 173.746094 150.960938 173.570312 151.21875 173.347656 151.445312 C 173.121094 151.667969 172.863281 151.839844 172.570312 151.960938 C 172.277344 152.082031 171.972656 152.144531 171.65625 152.144531 Z M 171.65625 152.144531 " fill-opacity="1" fill-rule="nonzero"/><path fill="#ffffff" d="M 171.65625 225.417969 L 151.082031 225.417969 C 150.765625 225.417969 150.460938 225.355469 150.167969 225.234375 C 149.875 225.113281 149.617188 224.941406 149.390625 224.71875 C 149.167969 224.492188 148.996094 224.234375 148.875 223.941406 C 148.753906 223.648438 148.691406 223.34375 148.691406 223.027344 C 148.691406 222.710938 148.753906 222.40625 148.875 222.113281 C 148.996094 221.820312 149.167969 221.5625 149.390625 221.335938 C 149.617188 221.113281 149.875 220.941406 150.167969 220.820312 C 150.460938 220.699219 150.765625 220.636719 151.082031 220.636719 L 171.65625 220.636719 C 171.972656 220.636719 172.277344 220.699219 172.570312 220.820312 C 172.863281 220.941406 173.121094 221.113281 173.347656 221.335938 C 173.570312 221.5625 173.746094 221.820312 173.867188 222.113281 C 173.988281 222.40625 174.046875 222.710938 174.046875 223.027344 C 174.046875 223.34375 173.988281 223.648438 173.867188 223.941406 C 173.746094 224.234375 173.570312 224.492188 173.347656 224.71875 C 173.121094 224.941406 172.863281 225.113281 172.570312 225.234375 C 172.277344 225.355469 171.972656 225.417969 171.65625 225.417969 Z M 171.65625 225.417969 " fill-opacity="1" fill-rule="nonzero"/><path fill="#ffffff" d="M 171.65625 255.363281 L 151.082031 255.363281 C 150.765625 255.363281 150.460938 255.300781 150.167969 255.179688 C 149.875 255.058594 149.617188 254.886719 149.390625 254.664062 C 149.167969 254.4375 148.996094 254.179688 148.875 253.886719 C 148.753906 253.59375 148.691406 253.289062 148.691406 252.972656 C 148.691406 252.65625 148.753906 252.351562 148.875 252.058594 C 148.996094 251.765625 149.167969 251.507812 149.390625 251.28125 C 149.617188 251.058594 149.875 250.886719 150.167969 250.765625 C 150.460938 250.644531 150.765625 250.582031 151.082031 250.582031 L 171.65625 250.582031 C 171.972656 250.582031 172.277344 250.644531 172.570312 250.765625 C 172.863281 250.886719 173.121094 251.058594 173.347656 251.28125 C 173.570312 251.507812 173.746094 251.765625 173.867188 252.058594 C 173.988281 252.351562 174.046875 252.65625 174.046875 252.972656 C 174.046875 253.289062 173.988281 253.59375 173.867188 253.886719 C 173.746094 254.179688 173.570312 254.4375 173.347656 254.664062 C 173.121094 254.886719 172.863281 255.058594 172.570312 255.179688 C 172.277344 255.300781 171.972656 255.363281 171.65625 255.363281 Z M 171.65625 255.363281 " fill-opacity="1" fill-rule="nonzero"/><path fill="#ffffff" d="M 67.335938 169.496094 L 59.824219 169.496094 C 59.507812 169.496094 59.203125 169.433594 58.910156 169.3125 C 58.617188 169.191406 58.359375 169.019531 58.132812 168.792969 C 57.910156 168.570312 57.738281 168.3125 57.617188 168.019531 C 57.496094 167.726562 57.433594 167.421875 57.433594 167.105469 C 57.433594 166.789062 57.496094 166.484375 57.617188 166.191406 C 57.738281 165.898438 57.910156 165.640625 58.132812 165.414062 C 58.359375 165.191406 58.617188 165.019531 58.910156 164.898438 C 59.203125 164.773438 59.507812 164.714844 59.824219 164.714844 L 67.335938 164.714844 C 67.652344 164.714844 67.960938 164.773438 68.253906 164.898438 C 68.546875 165.019531 68.804688 165.191406 69.027344 165.414062 C 69.253906 165.640625 69.425781 165.898438 69.546875 166.191406 C 69.667969 166.484375 69.730469 166.789062 69.730469 167.105469 C 69.730469 167.421875 69.667969 167.726562 69.546875 168.019531 C 69.425781 168.3125 69.253906 168.570312 69.027344 168.792969 C 68.804688 169.019531 68.546875 169.191406 68.253906 169.3125 C 67.960938 169.433594 67.652344 169.496094 67.335938 169.496094 Z M 67.335938 169.496094 " fill-opacity="1" fill-rule="nonzero"/><path fill="#ffffff" d="M 232.511719 251.609375 L 225 251.609375 C 224.683594 251.609375 224.375 251.550781 224.082031 251.429688 C 223.789062 251.308594 223.53125 251.132812 223.308594 250.910156 C 223.082031 250.6875 222.910156 250.425781 222.789062 250.132812 C 222.667969 249.84375 222.605469 249.539062 222.605469 249.21875 C 222.605469 248.902344 222.667969 248.597656 222.789062 248.304688 C 222.910156 248.011719 223.082031 247.753906 223.308594 247.53125 C 223.53125 247.304688 223.789062 247.132812 224.082031 247.011719 C 224.375 246.890625 224.683594 246.832031 225 246.832031 L 232.511719 246.832031 C 232.828125 246.832031 233.132812 246.890625 233.425781 247.011719 C 233.71875 247.132812 233.976562 247.304688 234.203125 247.53125 C 234.425781 247.753906 234.597656 248.011719 234.71875 248.304688 C 234.839844 248.597656 234.902344 248.902344 234.902344 249.21875 C 234.902344 249.539062 234.839844 249.84375 234.71875 250.132812 C 234.597656 250.425781 234.425781 250.6875 234.203125 250.910156 C 233.976562 251.132812 233.71875 251.308594 233.425781 251.429688 C 233.132812 251.550781 232.828125 251.609375 232.511719 251.609375 Z M 232.511719 251.609375 " fill-opacity="1" fill-rule="nonzero"/><path fill="#6d78bf" d="M 228.753906 170.640625 C 229.070312 170.640625 229.378906 170.703125 229.671875 170.824219 C 229.964844 170.945312 230.222656 171.117188 230.445312 171.339844 C 230.671875 171.566406 230.84375 171.824219 230.964844 172.117188 C 231.085938 172.410156 231.148438 172.714844 231.148438 173.03125 L 231.148438 179.414062 C 231.148438 179.730469 231.085938 180.035156 230.964844 180.328125 C 230.84375 180.621094 230.671875 180.878906 230.445312 181.101562 C 230.222656 181.328125 229.964844 181.5 229.671875 181.621094 C 229.378906 181.742188 229.070312 181.800781 228.753906 181.800781 C 228.4375 181.800781 228.132812 181.742188 227.839844 181.621094 C 227.546875 181.5 227.289062 181.328125 227.0625 181.101562 C 226.839844 180.878906 226.667969 180.621094 226.542969 180.328125 C 226.421875 180.035156 226.363281 179.730469 226.363281 179.414062 L 226.363281 173.03125 C 226.363281 172.714844 226.421875 172.410156 226.542969 172.117188 C 226.667969 171.824219 226.839844 171.566406 227.0625 171.339844 C 227.289062 171.117188 227.546875 170.945312 227.839844 170.824219 C 228.132812 170.703125 228.4375 170.640625 228.753906 170.640625 Z M 228.753906 170.640625 " fill-opacity="1" fill-rule="nonzero"/></svg>